<svg width="384" height="279" viewBox="0 0 384 279" fill="none" xmlns="http://www.w3.org/2000/svg">
<g clip-path="url(#clip0_33_108)">
<path d="M223.679 49.1844C230.876 49.1844 236.71 43.3562 236.71 36.1667C236.71 28.9772 230.876 23.1489 223.679 23.1489C216.483 23.1489 210.648 28.9772 210.648 36.1667C210.648 43.3562 216.483 49.1844 223.679 49.1844Z" fill="#F2F2F2"/>
<path d="M324.765 242.383C344.135 227.645 353.386 202.879 347.594 179.255C347.45 178.668 347.298 178.082 347.138 177.498C343.299 163.474 333.799 150.146 319.955 145.665C308.33 141.903 295.641 144.796 283.513 143.3C259.706 140.363 241.248 121.12 228.261 100.972C215.274 80.8241 205.293 58.2714 188.036 41.6263C159.591 14.1896 113.189 8.28251 77.9212 26.1417C42.6531 44.001 20.1877 83.6232 21.1458 123.112C22.1039 162.6 45.5704 200.354 79.6496 220.385C92.1689 227.743 106.649 232.956 121.059 231.132C133.563 229.549 144.924 222.838 157.369 220.845C176.935 217.712 196.376 226.55 213.299 236.848C230.222 247.146 246.569 259.353 265.8 264.127C284.473 268.763 307.607 255.438 324.765 242.383Z" fill="#CFCFCF"/>
<path d="M296.936 26.9709C296.512 26.6881 296.082 26.4199 295.658 26.1469C283.384 18.3052 270.229 11.9346 256.463 7.16687L253.271 51.153H233.037V0.745939C231.763 0.482667 230.48 0.23402 229.196 0V51.153H205.151C191.913 51.153 179.218 45.8998 169.858 36.549C160.497 27.1983 155.239 14.516 155.239 1.29204C153.95 1.56994 152.672 1.8673 151.393 2.1842V51.153H131.808L128.767 9.20969C114.621 14.6294 101.192 21.7565 88.7774 30.4324C88.5627 30.5787 88.3479 30.7298 88.1381 30.8761C87.0595 31.6318 85.9956 32.4021 84.9365 33.1822V200.989H142.657L141.637 186.875L136.025 109.38H249.05L243.437 186.875L242.417 200.989H299.499V28.6675C298.649 28.0922 297.795 27.5267 296.936 26.9709ZM151.393 96.5822H135.097L132.086 54.9948H151.393V96.5822ZM229.196 96.5822H201.827V95.7582C201.827 95.3621 201.749 94.9699 201.597 94.6041C201.445 94.2382 201.223 93.9058 200.942 93.626C200.661 93.3461 200.328 93.1243 199.962 92.9731C199.595 92.822 199.203 92.7446 198.806 92.7452H186.908C186.512 92.7451 186.119 92.8229 185.753 92.9743C185.387 93.1256 185.055 93.3476 184.775 93.6274C184.495 93.9072 184.272 94.2394 184.121 94.605C183.969 94.9706 183.891 95.3625 183.892 95.7582V96.5822H155.239V54.9948H229.196V96.5822ZM233.037 96.5822V54.9948H252.993L249.982 96.5822H233.037Z" fill="#3F3D56"/>
<path d="M0 211.735C4.23973 216.754 8.82548 221.47 13.7237 225.85L370.276 226.337C375.175 221.958 379.76 217.241 384 212.223L0 211.735Z" fill="#3F3D56"/>
<path d="M241.79 166.54V208.325C241.79 208.857 242.002 209.368 242.379 209.744C242.756 210.121 243.267 210.332 243.8 210.333H305.783C306.316 210.332 306.827 210.121 307.204 209.744C307.581 209.368 307.793 208.857 307.794 208.325V166.54C307.792 166.008 307.58 165.498 307.203 165.122C306.827 164.746 306.316 164.535 305.783 164.534H243.8C243.267 164.535 242.757 164.746 242.38 165.122C242.003 165.498 241.791 166.008 241.79 166.54Z" fill="#3F3D56"/>
<path d="M243.244 167.06V207.809C243.244 208.094 243.358 208.366 243.559 208.568C243.761 208.769 244.034 208.882 244.318 208.882H305.267C305.552 208.882 305.825 208.769 306.027 208.568C306.228 208.366 306.341 208.094 306.342 207.809V167.06C306.342 166.775 306.229 166.502 306.027 166.3C305.826 166.099 305.553 165.985 305.267 165.985H244.318C244.033 165.985 243.76 166.099 243.559 166.3C243.357 166.502 243.244 166.775 243.244 167.06Z" fill="#00B0FF"/>
<path d="M240.494 216.474C240.607 216.616 240.751 216.731 240.916 216.809C241.08 216.888 241.26 216.928 241.442 216.927H307.812C307.993 216.927 308.172 216.886 308.336 216.808C308.5 216.73 308.644 216.616 308.759 216.476C308.873 216.335 308.954 216.17 308.997 215.994C309.04 215.818 309.043 215.634 309.005 215.457L307.975 210.568C307.932 210.369 307.841 210.183 307.708 210.028C307.575 209.874 307.405 209.754 307.215 209.682C307.077 209.628 306.93 209.6 306.781 209.6H242.468C242.32 209.6 242.173 209.628 242.035 209.682C241.844 209.754 241.675 209.874 241.542 210.028C241.409 210.183 241.317 210.369 241.274 210.568L240.244 215.457C240.208 215.634 240.211 215.817 240.254 215.993C240.297 216.169 240.379 216.333 240.494 216.474Z" fill="#2F2E41"/>
<path d="M304.504 211.706H306.072C306.203 211.706 306.31 211.599 306.31 211.468V210.719C306.31 210.587 306.203 210.481 306.072 210.481H304.504C304.372 210.481 304.266 210.587 304.266 210.719V211.468C304.266 211.599 304.372 211.706 304.504 211.706Z" fill="#3F3D56"/>
<path d="M300.416 211.706H301.983C302.115 211.706 302.222 211.599 302.222 211.468V210.719C302.222 210.587 302.115 210.481 301.983 210.481H300.416C300.284 210.481 300.178 210.587 300.178 210.719V211.468C300.178 211.599 300.284 211.706 300.416 211.706Z" fill="#3F3D56"/>
<path d="M296.327 211.706H297.895C298.027 211.706 298.133 211.599 298.133 211.468V210.719C298.133 210.587 298.027 210.481 297.895 210.481H296.327C296.196 210.481 296.089 210.587 296.089 210.719V211.468C296.089 211.599 296.196 211.706 296.327 211.706Z" fill="#3F3D56"/>
<path d="M292.239 211.706H293.807C293.938 211.706 294.045 211.599 294.045 211.468V210.719C294.045 210.587 293.938 210.481 293.807 210.481H292.239C292.108 210.481 292.001 210.587 292.001 210.719V211.468C292.001 211.599 292.108 211.706 292.239 211.706Z" fill="#3F3D56"/>
<path d="M288.151 211.706H289.718C289.85 211.706 289.957 211.599 289.957 211.468V210.719C289.957 210.587 289.85 210.481 289.718 210.481H288.151C288.019 210.481 287.913 210.587 287.913 210.719V211.468C287.913 211.599 288.019 211.706 288.151 211.706Z" fill="#3F3D56"/>
<path d="M284.063 211.706H285.63C285.762 211.706 285.868 211.599 285.868 211.468V210.719C285.868 210.587 285.762 210.481 285.63 210.481H284.063C283.931 210.481 283.824 210.587 283.824 210.719V211.468C283.824 211.599 283.931 211.706 284.063 211.706Z" fill="#3F3D56"/>
<path d="M279.974 211.706H281.542C281.673 211.706 281.78 211.599 281.78 211.468V210.719C281.78 210.587 281.673 210.481 281.542 210.481H279.974C279.843 210.481 279.736 210.587 279.736 210.719V211.468C279.736 211.599 279.843 211.706 279.974 211.706Z" fill="#3F3D56"/>
<path d="M275.886 211.706H277.454C277.585 211.706 277.692 211.599 277.692 211.468V210.719C277.692 210.587 277.585 210.481 277.454 210.481H275.886C275.754 210.481 275.648 210.587 275.648 210.719V211.468C275.648 211.599 275.754 211.706 275.886 211.706Z" fill="#3F3D56"/>
<path d="M271.798 211.706H273.365C273.497 211.706 273.604 211.599 273.604 211.468V210.719C273.604 210.587 273.497 210.481 273.365 210.481H271.798C271.666 210.481 271.559 210.587 271.559 210.719V211.468C271.559 211.599 271.666 211.706 271.798 211.706Z" fill="#3F3D56"/>
<path d="M267.709 211.706H269.277C269.409 211.706 269.515 211.599 269.515 211.468V210.719C269.515 210.587 269.409 210.481 269.277 210.481H267.709C267.578 210.481 267.471 210.587 267.471 210.719V211.468C267.471 211.599 267.578 211.706 267.709 211.706Z" fill="#3F3D56"/>
<path d="M263.621 211.706H265.189C265.32 211.706 265.427 211.599 265.427 211.468V210.719C265.427 210.587 265.32 210.481 265.189 210.481H263.621C263.489 210.481 263.383 210.587 263.383 210.719V211.468C263.383 211.599 263.489 211.706 263.621 211.706Z" fill="#3F3D56"/>
<path d="M259.533 211.706H261.1C261.232 211.706 261.339 211.599 261.339 211.468V210.719C261.339 210.587 261.232 210.481 261.1 210.481H259.533C259.401 210.481 259.294 210.587 259.294 210.719V211.468C259.294 211.599 259.401 211.706 259.533 211.706Z" fill="#3F3D56"/>
<path d="M255.444 211.706H257.012C257.144 211.706 257.25 211.599 257.25 211.468V210.719C257.25 210.587 257.144 210.481 257.012 210.481H255.444C255.313 210.481 255.206 210.587 255.206 210.719V211.468C255.206 211.599 255.313 211.706 255.444 211.706Z" fill="#3F3D56"/>
<path d="M251.356 211.706H252.924C253.055 211.706 253.162 211.599 253.162 211.468V210.719C253.162 210.587 253.055 210.481 252.924 210.481H251.356C251.224 210.481 251.118 210.587 251.118 210.719V211.468C251.118 211.599 251.224 211.706 251.356 211.706Z" fill="#3F3D56"/>
<path d="M247.268 211.706H248.835C248.967 211.706 249.074 211.599 249.074 211.468V210.719C249.074 210.587 248.967 210.481 248.835 210.481H247.268C247.136 210.481 247.03 210.587 247.03 210.719V211.468C247.03 211.599 247.136 211.706 247.268 211.706Z" fill="#3F3D56"/>
<path d="M243.179 211.706H244.747C244.879 211.706 244.985 211.599 244.985 211.468V210.719C244.985 210.587 244.879 210.481 244.747 210.481H243.179C243.048 210.481 242.941 210.587 242.941 210.719V211.468C242.941 211.599 243.048 211.706 243.179 211.706Z" fill="#3F3D56"/>
<path d="M304.552 213.748H306.12C306.252 213.748 306.358 213.641 306.358 213.51V212.761C306.358 212.629 306.252 212.523 306.12 212.523H304.552C304.421 212.523 304.314 212.629 304.314 212.761V213.51C304.314 213.641 304.421 213.748 304.552 213.748Z" fill="#3F3D56"/>
<path d="M300.464 213.748H302.032C302.163 213.748 302.27 213.641 302.27 213.51V212.761C302.27 212.629 302.163 212.523 302.032 212.523H300.464C300.332 212.523 300.226 212.629 300.226 212.761V213.51C300.226 213.641 300.332 213.748 300.464 213.748Z" fill="#3F3D56"/>
<path d="M296.376 213.748H297.943C298.075 213.748 298.182 213.641 298.182 213.51V212.761C298.182 212.629 298.075 212.523 297.943 212.523H296.376C296.244 212.523 296.137 212.629 296.137 212.761V213.51C296.137 213.641 296.244 213.748 296.376 213.748Z" fill="#3F3D56"/>
<path d="M292.287 213.748H293.855C293.987 213.748 294.093 213.641 294.093 213.51V212.761C294.093 212.629 293.987 212.523 293.855 212.523H292.287C292.156 212.523 292.049 212.629 292.049 212.761V213.51C292.049 213.641 292.156 213.748 292.287 213.748Z" fill="#3F3D56"/>
<path d="M288.199 213.748H289.767C289.898 213.748 290.005 213.641 290.005 213.51V212.761C290.005 212.629 289.898 212.523 289.767 212.523H288.199C288.068 212.523 287.961 212.629 287.961 212.761V213.51C287.961 213.641 288.068 213.748 288.199 213.748Z" fill="#3F3D56"/>
<path d="M284.111 213.748H285.679C285.81 213.748 285.917 213.641 285.917 213.51V212.761C285.917 212.629 285.81 212.523 285.679 212.523H284.111C283.979 212.523 283.873 212.629 283.873 212.761V213.51C283.873 213.641 283.979 213.748 284.111 213.748Z" fill="#3F3D56"/>
<path d="M280.023 213.748H281.59C281.722 213.748 281.828 213.641 281.828 213.51V212.761C281.828 212.629 281.722 212.523 281.59 212.523H280.023C279.891 212.523 279.784 212.629 279.784 212.761V213.51C279.784 213.641 279.891 213.748 280.023 213.748Z" fill="#3F3D56"/>
<path d="M275.934 213.748H277.502C277.633 213.748 277.74 213.641 277.74 213.51V212.761C277.74 212.629 277.633 212.523 277.502 212.523H275.934C275.803 212.523 275.696 212.629 275.696 212.761V213.51C275.696 213.641 275.803 213.748 275.934 213.748Z" fill="#3F3D56"/>
<path d="M271.846 213.748H273.414C273.545 213.748 273.652 213.641 273.652 213.51V212.761C273.652 212.629 273.545 212.523 273.414 212.523H271.846C271.714 212.523 271.608 212.629 271.608 212.761V213.51C271.608 213.641 271.714 213.748 271.846 213.748Z" fill="#3F3D56"/>
<path d="M267.758 213.748H269.325C269.457 213.748 269.564 213.641 269.564 213.51V212.761C269.564 212.629 269.457 212.523 269.325 212.523H267.758C267.626 212.523 267.519 212.629 267.519 212.761V213.51C267.519 213.641 267.626 213.748 267.758 213.748Z" fill="#3F3D56"/>
<path d="M263.669 213.748H265.237C265.369 213.748 265.475 213.641 265.475 213.51V212.761C265.475 212.629 265.369 212.523 265.237 212.523H263.669C263.538 212.523 263.431 212.629 263.431 212.761V213.51C263.431 213.641 263.538 213.748 263.669 213.748Z" fill="#3F3D56"/>
<path d="M259.581 213.748H261.149C261.28 213.748 261.387 213.641 261.387 213.51V212.761C261.387 212.629 261.28 212.523 261.149 212.523H259.581C259.449 212.523 259.343 212.629 259.343 212.761V213.51C259.343 213.641 259.449 213.748 259.581 213.748Z" fill="#3F3D56"/>
<path d="M255.493 213.748H257.06C257.192 213.748 257.299 213.641 257.299 213.51V212.761C257.299 212.629 257.192 212.523 257.06 212.523H255.493C255.361 212.523 255.254 212.629 255.254 212.761V213.51C255.254 213.641 255.361 213.748 255.493 213.748Z" fill="#3F3D56"/>
<path d="M251.404 213.748H252.972C253.104 213.748 253.21 213.641 253.21 213.51V212.761C253.21 212.629 253.104 212.523 252.972 212.523H251.404C251.273 212.523 251.166 212.629 251.166 212.761V213.51C251.166 213.641 251.273 213.748 251.404 213.748Z" fill="#3F3D56"/>
<path d="M247.316 213.748H248.884C249.015 213.748 249.122 213.641 249.122 213.51V212.761C249.122 212.629 249.015 212.523 248.884 212.523H247.316C247.184 212.523 247.078 212.629 247.078 212.761V213.51C247.078 213.641 247.184 213.748 247.316 213.748Z" fill="#3F3D56"/>
<path d="M243.228 213.748H244.795C244.927 213.748 245.034 213.641 245.034 213.51V212.761C245.034 212.629 244.927 212.523 244.795 212.523H243.228C243.096 212.523 242.99 212.629 242.99 212.761V213.51C242.99 213.641 243.096 213.748 243.228 213.748Z" fill="#3F3D56"/>
<path d="M270.619 216.198H286.496C286.628 216.198 286.734 216.092 286.734 215.96V215.211C286.734 215.08 286.628 214.973 286.496 214.973H270.619C270.488 214.973 270.381 215.08 270.381 215.211V215.96C270.381 216.092 270.488 216.198 270.619 216.198Z" fill="#3F3D56"/>
<path d="M253.799 174.9H252.411C251.99 174.9 251.649 175.24 251.649 175.661C251.649 176.081 251.99 176.422 252.411 176.422H253.799C254.219 176.422 254.56 176.081 254.56 175.661C254.56 175.24 254.219 174.9 253.799 174.9Z" fill="white"/>
<path d="M269.671 174.9H268.283C267.862 174.9 267.521 175.24 267.521 175.661C267.521 176.081 267.862 176.422 268.283 176.422H269.671C270.092 176.422 270.433 176.081 270.433 175.661C270.433 175.24 270.092 174.9 269.671 174.9Z" fill="white"/>
<path d="M274.168 174.9H272.78C272.36 174.9 272.019 175.24 272.019 175.661C272.019 176.081 272.36 176.422 272.78 176.422H274.168C274.589 176.422 274.93 176.081 274.93 175.661C274.93 175.24 274.589 174.9 274.168 174.9Z" fill="white"/>
<path d="M265.354 174.773H256.728C256.307 174.773 255.966 175.113 255.966 175.534C255.966 175.954 256.307 176.295 256.728 176.295H265.354C265.774 176.295 266.116 175.954 266.116 175.534C266.116 175.113 265.774 174.773 265.354 174.773Z" fill="white"/>
<path d="M286.517 174.773H277.892C277.471 174.773 277.13 175.113 277.13 175.534C277.13 175.954 277.471 176.295 277.892 176.295H286.517C286.938 176.295 287.279 175.954 287.279 175.534C287.279 175.113 286.938 174.773 286.517 174.773Z" fill="white"/>
<path d="M258.031 178.335H256.643C256.223 178.335 255.882 178.676 255.882 179.096C255.882 179.517 256.223 179.857 256.643 179.857H258.031C258.452 179.857 258.793 179.517 258.793 179.096C258.793 178.676 258.452 178.335 258.031 178.335Z" fill="white"/>
<path d="M273.904 178.335H272.516C272.095 178.335 271.754 178.676 271.754 179.096C271.754 179.517 272.095 179.857 272.516 179.857H273.904C274.325 179.857 274.666 179.517 274.666 179.096C274.666 178.676 274.325 178.335 273.904 178.335Z" fill="white"/>
<path d="M278.401 178.335H277.013C276.592 178.335 276.251 178.676 276.251 179.096C276.251 179.517 276.592 179.857 277.013 179.857H278.401C278.822 179.857 279.163 179.517 279.163 179.096C279.163 178.676 278.822 178.335 278.401 178.335Z" fill="white"/>
<path d="M269.586 178.208H260.961C260.54 178.208 260.199 178.549 260.199 178.969C260.199 179.39 260.54 179.73 260.961 179.73H269.586C270.007 179.73 270.348 179.39 270.348 178.969C270.348 178.549 270.007 178.208 269.586 178.208Z" fill="white"/>
<path d="M290.75 178.208H282.124C281.703 178.208 281.362 178.549 281.362 178.969C281.362 179.39 281.703 179.73 282.124 179.73H290.75C291.171 179.73 291.512 179.39 291.512 178.969C291.512 178.549 291.171 178.208 290.75 178.208Z" fill="white"/>
<path d="M262.264 181.771H260.876C260.455 181.771 260.114 182.111 260.114 182.532C260.114 182.952 260.455 183.293 260.876 183.293H262.264C262.685 183.293 263.026 182.952 263.026 182.532C263.026 182.111 262.685 181.771 262.264 181.771Z" fill="white"/>
<path d="M278.136 181.771H276.749C276.328 181.771 275.987 182.111 275.987 182.532C275.987 182.952 276.328 183.293 276.749 183.293H278.136C278.557 183.293 278.898 182.952 278.898 182.532C278.898 182.111 278.557 181.771 278.136 181.771Z" fill="white"/>
<path d="M282.634 181.771H281.246C280.825 181.771 280.484 182.111 280.484 182.532C280.484 182.952 280.825 183.293 281.246 183.293H282.634C283.054 183.293 283.396 182.952 283.396 182.532C283.396 182.111 283.054 181.771 282.634 181.771Z" fill="white"/>
<path d="M273.819 181.644H265.193C264.773 181.644 264.432 181.985 264.432 182.405C264.432 182.825 264.773 183.166 265.193 183.166H273.819C274.24 183.166 274.581 182.825 274.581 182.405C274.581 181.985 274.24 181.644 273.819 181.644Z" fill="white"/>
<path d="M294.982 181.644H286.357C285.936 181.644 285.595 181.985 285.595 182.405C285.595 182.825 285.936 183.166 286.357 183.166H294.982C295.403 183.166 295.744 182.825 295.744 182.405C295.744 181.985 295.403 181.644 294.982 181.644Z" fill="white"/>
<path d="M266.497 185.206H265.109C264.688 185.206 264.347 185.547 264.347 185.967C264.347 186.388 264.688 186.728 265.109 186.728H266.497C266.917 186.728 267.258 186.388 267.258 185.967C267.258 185.547 266.917 185.206 266.497 185.206Z" fill="white"/>
<path d="M282.369 185.206H280.981C280.561 185.206 280.219 185.547 280.219 185.967C280.219 186.388 280.561 186.728 280.981 186.728H282.369C282.79 186.728 283.131 186.388 283.131 185.967C283.131 185.547 282.79 185.206 282.369 185.206Z" fill="white"/>
<path d="M286.866 185.206H285.479C285.058 185.206 284.717 185.547 284.717 185.967C284.717 186.388 285.058 186.728 285.479 186.728H286.866C287.287 186.728 287.628 186.388 287.628 185.967C287.628 185.547 287.287 185.206 286.866 185.206Z" fill="white"/>
<path d="M278.052 185.079H269.426C269.005 185.079 268.664 185.42 268.664 185.84C268.664 186.261 269.005 186.602 269.426 186.602H278.052C278.472 186.602 278.814 186.261 278.814 185.84C278.814 185.42 278.472 185.079 278.052 185.079Z" fill="white"/>
<path d="M269.671 198.867H268.283C267.862 198.867 267.521 199.208 267.521 199.629C267.521 200.049 267.862 200.39 268.283 200.39H269.671C270.092 200.39 270.433 200.049 270.433 199.629C270.433 199.208 270.092 198.867 269.671 198.867Z" fill="white"/>
<path d="M274.168 198.867H272.78C272.36 198.867 272.019 199.208 272.019 199.629C272.019 200.049 272.36 200.39 272.78 200.39H274.168C274.589 200.39 274.93 200.049 274.93 199.629C274.93 199.208 274.589 198.867 274.168 198.867Z" fill="white"/>
<path d="M286.517 198.994H277.892C277.471 198.994 277.13 199.335 277.13 199.755C277.13 200.176 277.471 200.517 277.892 200.517H286.517C286.938 200.517 287.279 200.176 287.279 199.755C287.279 199.335 286.938 198.994 286.517 198.994Z" fill="white"/>
<path d="M253.799 198.867H252.411C251.99 198.867 251.649 199.208 251.649 199.629C251.649 200.049 251.99 200.39 252.411 200.39H253.799C254.219 200.39 254.56 200.049 254.56 199.629C254.56 199.208 254.219 198.867 253.799 198.867Z" fill="white"/>
<path d="M265.354 198.994H256.728C256.307 198.994 255.966 199.335 255.966 199.755C255.966 200.176 256.307 200.517 256.728 200.517H265.354C265.774 200.517 266.116 200.176 266.116 199.755C266.116 199.335 265.774 198.994 265.354 198.994Z" fill="white"/>
<path d="M258.031 195.432H256.643C256.223 195.432 255.882 195.773 255.882 196.193C255.882 196.613 256.223 196.954 256.643 196.954H258.031C258.452 196.954 258.793 196.613 258.793 196.193C258.793 195.773 258.452 195.432 258.031 195.432Z" fill="white"/>
<path d="M273.904 195.432H272.516C272.095 195.432 271.754 195.773 271.754 196.193C271.754 196.613 272.095 196.954 272.516 196.954H273.904C274.325 196.954 274.666 196.613 274.666 196.193C274.666 195.773 274.325 195.432 273.904 195.432Z" fill="white"/>
<path d="M278.401 195.432H277.013C276.592 195.432 276.251 195.773 276.251 196.193C276.251 196.613 276.592 196.954 277.013 196.954H278.401C278.822 196.954 279.163 196.613 279.163 196.193C279.163 195.773 278.822 195.432 278.401 195.432Z" fill="white"/>
<path d="M269.586 195.559H260.961C260.54 195.559 260.199 195.9 260.199 196.32C260.199 196.74 260.54 197.081 260.961 197.081H269.586C270.007 197.081 270.348 196.74 270.348 196.32C270.348 195.9 270.007 195.559 269.586 195.559Z" fill="white"/>
<path d="M262.264 191.996H260.876C260.455 191.996 260.114 192.337 260.114 192.757C260.114 193.178 260.455 193.519 260.876 193.519H262.264C262.685 193.519 263.026 193.178 263.026 192.757C263.026 192.337 262.685 191.996 262.264 191.996Z" fill="white"/>
<path d="M278.136 191.996H276.749C276.328 191.996 275.987 192.337 275.987 192.757C275.987 193.178 276.328 193.519 276.749 193.519H278.136C278.557 193.519 278.898 193.178 278.898 192.757C278.898 192.337 278.557 191.996 278.136 191.996Z" fill="white"/>
<path d="M282.634 191.996H281.246C280.825 191.996 280.484 192.337 280.484 192.757C280.484 193.178 280.825 193.519 281.246 193.519H282.634C283.054 193.519 283.396 193.178 283.396 192.757C283.396 192.337 283.054 191.996 282.634 191.996Z" fill="white"/>
<path d="M273.819 192.123H265.193C264.773 192.123 264.432 192.464 264.432 192.884C264.432 193.305 264.773 193.645 265.193 193.645H273.819C274.24 193.645 274.581 193.305 274.581 192.884C274.581 192.464 274.24 192.123 273.819 192.123Z" fill="white"/>
<path d="M266.497 188.561H265.109C264.688 188.561 264.347 188.902 264.347 189.322C264.347 189.742 264.688 190.083 265.109 190.083H266.497C266.917 190.083 267.258 189.742 267.258 189.322C267.258 188.902 266.917 188.561 266.497 188.561Z" fill="white"/>
<path d="M282.369 188.561H280.981C280.561 188.561 280.219 188.902 280.219 189.322C280.219 189.742 280.561 190.083 280.981 190.083H282.369C282.79 190.083 283.131 189.742 283.131 189.322C283.131 188.902 282.79 188.561 282.369 188.561Z" fill="white"/>
<path d="M286.866 188.561H285.479C285.058 188.561 284.717 188.902 284.717 189.322C284.717 189.742 285.058 190.083 285.479 190.083H286.866C287.287 190.083 287.628 189.742 287.628 189.322C287.628 188.902 287.287 188.561 286.866 188.561Z" fill="white"/>
<path d="M278.052 188.688H269.426C269.005 188.688 268.664 189.029 268.664 189.449C268.664 189.869 269.005 190.21 269.426 190.21H278.052C278.472 190.21 278.814 189.869 278.814 189.449C278.814 189.029 278.472 188.688 278.052 188.688Z" fill="white"/>
<path d="M246.42 239.131L239.905 228.843L260.355 212.557L268.796 203.215C269.892 202.002 271.289 201.097 272.845 200.591C274.401 200.085 276.063 199.997 277.665 200.334C279.266 200.671 280.751 201.422 281.971 202.511C283.191 203.601 284.103 204.992 284.617 206.544C285.378 208.845 285.214 211.351 284.161 213.533C283.107 215.715 281.246 217.403 278.97 218.241L265.623 223.153L246.42 239.131Z" fill="#FFB6B6"/>
<path d="M93.5525 164.536V214.539H128.618V164.536C128.619 164.177 128.504 163.826 128.29 163.537C128.077 163.247 127.776 163.034 127.432 162.927C127.27 162.874 127.1 162.848 126.93 162.849H95.246C95.0239 162.849 94.8039 162.892 94.5985 162.977C94.3932 163.061 94.2066 163.186 94.0493 163.342C93.892 163.499 93.7672 163.685 93.6819 163.89C93.5967 164.095 93.5527 164.314 93.5525 164.536ZM107.237 181.717C107.246 180.732 107.645 179.789 108.346 179.095C109.047 178.402 109.994 178.012 110.98 178.012C111.967 178.012 112.914 178.402 113.615 179.095C114.316 179.789 114.715 180.732 114.724 181.717V187.519C114.719 188.508 114.322 189.454 113.621 190.151C112.919 190.848 111.97 191.24 110.98 191.24C109.991 191.24 109.042 190.848 108.34 190.151C107.639 189.454 107.242 188.508 107.237 187.519V181.717Z" fill="#2F2E41"/>
<path d="M93.4452 212.939V217.761C93.446 218.011 93.5453 218.25 93.7216 218.427C93.898 218.605 94.1371 218.705 94.3871 218.707H127.784C128.034 218.706 128.274 218.606 128.45 218.428C128.627 218.251 128.726 218.011 128.726 217.761V212.939H93.4452Z" fill="#3F3D56"/>
<path d="M38.3893 89.2011V180.498C38.3902 181.662 38.8533 182.777 39.6768 183.6C40.5003 184.423 41.617 184.885 42.7816 184.886H178.213C179.378 184.885 180.494 184.423 181.318 183.6C182.141 182.777 182.604 181.662 182.605 180.498V89.2011C182.602 88.0387 182.139 86.9247 181.315 86.1032C180.492 85.2817 179.377 84.8196 178.213 84.8181H42.7816C41.618 84.8196 40.5024 85.2817 39.6791 86.1032C38.8559 86.9247 38.3921 88.0387 38.3893 89.2011Z" fill="#3F3D56"/>
<path d="M41.5664 90.3373V179.372C41.5675 179.994 41.8151 180.59 42.2551 181.029C42.6951 181.469 43.2916 181.716 43.9139 181.717H177.085C177.708 181.716 178.304 181.469 178.744 181.029C179.184 180.59 179.432 179.994 179.433 179.372V90.3373C179.433 89.7149 179.186 89.1179 178.746 88.6774C178.306 88.2368 177.709 87.9887 177.085 87.9873H43.9139C43.2909 87.9887 42.6938 88.2368 42.2537 88.6774C41.8137 89.1179 41.5665 89.7149 41.5664 90.3373Z" fill="white"/>
<path d="M66.2808 218.38C66.4163 218.55 66.5886 218.687 66.7847 218.781C66.9808 218.875 67.1957 218.923 67.413 218.922H146.642C146.858 218.921 147.072 218.873 147.268 218.78C147.463 218.686 147.635 218.551 147.772 218.383C147.908 218.214 148.006 218.018 148.057 217.808C148.108 217.597 148.111 217.378 148.067 217.166L146.837 211.33C146.786 211.093 146.676 210.871 146.517 210.686C146.359 210.501 146.157 210.359 145.929 210.273C145.764 210.208 145.589 210.175 145.412 210.175H68.638C68.461 210.175 68.2855 210.208 68.1207 210.273C67.8931 210.359 67.6908 210.501 67.5322 210.686C67.3737 210.871 67.2639 211.093 67.2129 211.33L65.9831 217.166C65.9393 217.378 65.9433 217.597 65.9948 217.807C66.0463 218.017 66.144 218.213 66.2808 218.38Z" fill="#2F2E41"/>
<path d="M172.764 100.252H48.1555C48.026 100.249 47.9028 100.196 47.8122 100.103C47.7216 100.011 47.6709 99.8867 47.6709 99.7572C47.6709 99.6278 47.7216 99.5035 47.8122 99.411C47.9028 99.3185 48.026 99.2651 48.1555 99.2622H172.764C172.893 99.2651 173.016 99.3185 173.107 99.411C173.198 99.5035 173.248 99.6278 173.248 99.7572C173.248 99.8867 173.198 100.011 173.107 100.103C173.016 100.196 172.893 100.249 172.764 100.252Z" fill="#3F3D56"/>
<path d="M56.6377 96.7347C58.2416 96.7347 59.5417 95.4069 59.5417 93.769C59.5417 92.131 58.2416 90.8032 56.6377 90.8032C55.0338 90.8032 53.7336 92.131 53.7336 93.769C53.7336 95.4069 55.0338 96.7347 56.6377 96.7347Z" fill="#3F3D56"/>
<path d="M66.6699 96.7347C68.2738 96.7347 69.574 95.4069 69.574 93.769C69.574 92.131 68.2738 90.8032 66.6699 90.8032C65.0661 90.8032 63.7659 92.131 63.7659 93.769C63.7659 95.4069 65.0661 96.7347 66.6699 96.7347Z" fill="#3F3D56"/>
<path d="M76.7021 96.7347C78.306 96.7347 79.6062 95.4069 79.6062 93.769C79.6062 92.131 78.306 90.8032 76.7021 90.8032C75.0983 90.8032 73.7981 92.131 73.7981 93.769C73.7981 95.4069 75.0983 96.7347 76.7021 96.7347Z" fill="#3F3D56"/>
<path d="M166.723 91.5366H159.597C159.456 91.5399 159.322 91.5981 159.224 91.6988C159.125 91.7994 159.07 91.9346 159.07 92.0753C159.07 92.2161 159.125 92.3513 159.224 92.4519C159.322 92.5526 159.456 92.6108 159.597 92.6141H166.723C166.864 92.6121 167 92.5545 167.099 92.4536C167.199 92.3528 167.254 92.2169 167.254 92.0753C167.254 91.9338 167.199 91.7979 167.099 91.6971C167 91.5963 166.864 91.5386 166.723 91.5366Z" fill="#3F3D56"/>
<path d="M166.723 93.5598H159.597C159.456 93.5629 159.322 93.6211 159.223 93.7218C159.125 93.8224 159.07 93.9577 159.07 94.0986C159.07 94.2394 159.125 94.3747 159.223 94.4754C159.322 94.576 159.456 94.6342 159.597 94.6373H166.723C166.864 94.6356 167 94.5781 167.1 94.4772C167.2 94.3764 167.255 94.2403 167.255 94.0986C167.255 93.9568 167.2 93.8207 167.1 93.7199C167 93.619 166.864 93.5615 166.723 93.5598Z" fill="#3F3D56"/>
<path d="M166.723 95.583H159.597C159.456 95.5863 159.322 95.6445 159.224 95.7452C159.125 95.8458 159.07 95.981 159.07 96.1217C159.07 96.2625 159.125 96.3977 159.224 96.4983C159.322 96.599 159.456 96.6572 159.597 96.6605H166.723C166.864 96.6585 167 96.6008 167.099 96.5C167.199 96.3992 167.254 96.2633 167.254 96.1217C167.254 95.9802 167.199 95.8443 167.099 95.7435C167 95.6426 166.864 95.585 166.723 95.583Z" fill="#3F3D56"/>
<path d="M338.503 215.056C338.718 215.681 339.126 216.222 339.668 216.602C340.21 216.981 340.859 217.179 341.52 217.167L354.45 216.835C355.116 216.822 355.761 216.594 356.287 216.184C356.813 215.775 357.192 215.207 357.368 214.564L359.198 195.02C359.847 195.314 360.554 195.459 361.266 195.445C361.885 195.429 362.495 195.292 363.061 195.041C363.627 194.79 364.138 194.43 364.565 193.982C364.991 193.534 365.326 193.006 365.548 192.429C365.771 191.851 365.877 191.236 365.862 190.618C365.846 189.999 365.709 189.39 365.458 188.825C365.206 188.259 364.846 187.749 364.397 187.323C363.949 186.896 363.42 186.563 362.843 186.34C362.265 186.118 361.649 186.012 361.03 186.027C360.745 186.026 360.461 186.056 360.182 186.115C359.879 185.788 359.511 185.527 359.102 185.351C358.692 185.174 358.25 185.085 357.804 185.09L337.916 185.603C337.751 185.609 337.587 185.629 337.425 185.664C336.989 185.745 336.575 185.918 336.212 186.173C335.849 186.427 335.544 186.756 335.319 187.138C335.093 187.52 334.952 187.945 334.906 188.386C334.859 188.827 334.907 189.272 335.047 189.693L338.503 215.056ZM359.573 193.693L360.875 189.036C361.023 188.498 361.027 187.93 360.885 187.391C360.948 187.39 361.004 187.36 361.067 187.36C361.96 187.342 362.823 187.678 363.469 188.294C364.114 188.911 364.488 189.758 364.509 190.65C364.529 191.542 364.196 192.405 363.58 193.051C362.965 193.697 362.118 194.073 361.225 194.097C360.648 194.115 360.077 193.975 359.573 193.693Z" fill="#2F2E41"/>
<path d="M337.425 185.663C337.849 188.084 342.613 189.785 348.341 189.489C353.608 189.247 357.915 187.399 358.704 185.209C358.412 185.123 358.108 185.083 357.804 185.09L337.916 185.603C337.751 185.609 337.587 185.629 337.425 185.663Z" fill="#3F3D56"/>
<path d="M351.426 205.002C351.452 204.995 351.477 204.984 351.499 204.969L354.307 203.133C354.341 203.111 354.369 203.081 354.388 203.045C354.407 203.01 354.418 202.97 354.418 202.93C354.418 202.889 354.408 202.849 354.388 202.814C354.369 202.778 354.341 202.748 354.307 202.726L351.389 200.816C351.362 200.798 351.332 200.786 351.3 200.78C351.269 200.774 351.236 200.774 351.205 200.781C351.174 200.787 351.144 200.8 351.117 200.818C351.091 200.836 351.068 200.859 351.05 200.886C351.033 200.913 351.021 200.943 351.015 200.974C351.009 201.006 351.009 201.038 351.016 201.069C351.022 201.101 351.035 201.131 351.053 201.157C351.071 201.184 351.094 201.206 351.121 201.224L353.728 202.929L351.232 204.561C351.184 204.593 351.148 204.641 351.132 204.696C351.115 204.751 351.119 204.811 351.142 204.863C351.165 204.916 351.207 204.959 351.259 204.984C351.31 205.01 351.37 205.016 351.426 205.002Z" fill="white"/>
<path d="M343.669 205.001C343.716 204.989 343.758 204.963 343.791 204.927C343.823 204.891 343.844 204.846 343.851 204.798C343.857 204.75 343.849 204.701 343.828 204.657C343.807 204.614 343.773 204.577 343.73 204.553L341.142 203.071L343.644 201.215C343.67 201.196 343.691 201.172 343.708 201.144C343.724 201.117 343.735 201.086 343.74 201.055C343.744 201.023 343.743 200.991 343.735 200.96C343.727 200.929 343.713 200.9 343.694 200.874C343.675 200.848 343.651 200.827 343.624 200.81C343.596 200.794 343.566 200.783 343.534 200.778C343.502 200.774 343.47 200.775 343.439 200.783C343.408 200.791 343.379 200.805 343.353 200.824L340.552 202.902C340.52 202.926 340.494 202.958 340.477 202.994C340.459 203.031 340.452 203.072 340.454 203.112C340.456 203.152 340.469 203.191 340.49 203.226C340.512 203.26 340.541 203.289 340.576 203.309L343.488 204.976C343.542 205.008 343.607 205.017 343.669 205.001Z" fill="white"/>
<path d="M349.111 206.489C349.135 206.483 349.157 206.474 349.178 206.461C349.205 206.444 349.229 206.422 349.248 206.396C349.267 206.371 349.281 206.341 349.288 206.31C349.296 206.279 349.297 206.247 349.292 206.215C349.287 206.183 349.276 206.153 349.26 206.126L345.279 199.589C345.246 199.533 345.191 199.494 345.129 199.479C345.066 199.464 344.999 199.474 344.944 199.508C344.889 199.541 344.849 199.595 344.834 199.658C344.819 199.721 344.829 199.787 344.862 199.842L348.843 206.379C348.87 206.424 348.911 206.459 348.959 206.478C349.007 206.498 349.06 206.502 349.111 206.489Z" fill="white"/>
<path d="M125.348 127.164H103.781C102.901 127.164 102.188 127.877 102.188 128.756V130.861C102.188 131.74 102.901 132.452 103.781 132.452H125.348C126.228 132.452 126.941 131.74 126.941 130.861V128.756C126.941 127.877 126.228 127.164 125.348 127.164Z" fill="#00B0FF"/>
<path d="M137.919 137.74H91.21C90.3302 137.74 89.6169 138.452 89.6169 139.331V141.436C89.6169 142.315 90.3302 143.027 91.21 143.027H137.919C138.799 143.027 139.512 142.315 139.512 141.436V139.331C139.512 138.452 138.799 137.74 137.919 137.74Z" fill="#E6E6E6"/>
<path d="M137.919 148.315H91.21C90.3302 148.315 89.6169 149.028 89.6169 149.907V152.012C89.6169 152.89 90.3302 153.603 91.21 153.603H137.919C138.799 153.603 139.512 152.89 139.512 152.012V149.907C139.512 149.028 138.799 148.315 137.919 148.315Z" fill="#E6E6E6"/>
<path d="M141.879 183.728L141.985 184.062L141.99 184.073L145.175 193.745L148.838 204.891L155.731 225.836L155.797 229.09V229.101L156.31 255.275L154.89 258.823L156.488 264.64C156.488 264.64 155.753 255.847 151.811 260.897C149.579 263.767 146.968 266.703 144.824 269.456C147.947 270.719 151.121 271.861 154.344 272.882C155.04 273.105 155.742 273.316 156.443 273.527C156.594 273.572 156.744 273.616 156.894 273.661C167.58 276.818 178.627 278.592 189.764 278.939C190.343 278.956 190.911 278.967 191.462 278.978C191.657 278.983 191.846 278.989 192.036 278.989C192.659 278.995 193.277 279 193.901 279C195.159 279 196.412 278.982 197.659 278.944C206.889 278.685 216.066 277.445 225.034 275.246C224.972 271.547 224.805 267.226 224.566 262.61C224.455 260.346 221.955 257.893 221.805 255.524C221.699 253.744 223.942 252.07 223.826 250.263C223.068 239.134 222.122 243.406 221.42 235.525C221.348 234.752 221.281 234.012 221.22 233.306C220.769 228.245 220.457 225.08 220.457 225.08L223.453 206.22L228.157 176.609L227.795 176.014L227.389 175.814L202.575 163.545L201.227 160.097C200.835 159.103 200.154 158.25 199.272 157.646C198.39 157.043 197.347 156.716 196.278 156.71L179.932 156.643C179.084 156.639 178.247 156.837 177.491 157.221C176.734 157.605 176.081 158.164 175.584 158.851L171.158 164.974L141.879 183.728Z" fill="#999999"/>
<path d="M159.5 221.175L155.797 229.09L153.27 234.496L148.922 257.238L146.745 259.546L144.88 251.375L125.359 255.705C124.719 252.151 125.188 255.825 124.792 251.926C124.904 251.815 125.021 251.704 125.138 251.593C125.449 251.303 125.711 251.031 125.706 250.769C125.483 237.321 126.151 214.435 131.729 200.569C132.603 198.305 133.755 196.159 135.159 194.179C135.27 194.029 135.376 193.878 135.482 193.728C138.054 190.13 139.68 186.587 141.985 184.068V184.062C141.999 184.051 142.012 184.037 142.024 184.023C142.032 184.019 142.04 184.013 142.046 184.006L157.88 175.619L158.559 194.685L159.043 208.389L159.5 221.175Z" fill="#999999"/>
<path d="M216.593 223.423L221.218 233.308L222.832 236.751L227.179 259.491L229.348 261.793L231.218 253.624L232.096 253.444L247.937 250.167L252.554 264.815C253.595 263.083 254.005 261.045 253.715 259.046C253.425 257.047 252.453 255.209 250.963 253.843C250.647 253.558 250.385 253.281 250.392 253.018C250.655 237.201 249.687 208.318 240.94 196.431C238.162 192.659 236.496 188.901 234.071 186.276C234.063 186.269 234.063 186.261 234.056 186.261L228.155 176.609L227.794 176.016L227.389 175.814L216.593 223.423Z" fill="#999999"/>
<path d="M188.577 151.996C200.587 151.996 210.323 142.27 210.323 130.272C210.323 118.274 200.587 108.548 188.577 108.548C176.567 108.548 166.831 118.274 166.831 130.272C166.831 142.27 176.567 151.996 188.577 151.996Z" fill="#FFB6B6"/>
<path d="M217.97 115.098C217.801 114.918 217.598 114.774 217.372 114.674C217.147 114.574 216.904 114.521 216.657 114.517L216.984 113.611C217.091 113.325 217.119 113.016 217.067 112.716C217.015 112.415 216.884 112.134 216.688 111.901C216.491 111.668 216.236 111.491 215.948 111.389C215.661 111.286 215.351 111.262 215.051 111.319L213.86 111.548L213.973 110.754C214.016 110.458 213.981 110.155 213.872 109.877C213.762 109.599 213.582 109.353 213.35 109.165C213.117 108.977 212.839 108.853 212.543 108.805C212.248 108.757 211.945 108.787 211.664 108.891C211.409 108.991 211.135 109.033 210.861 109.014C210.587 108.995 210.322 108.914 210.083 108.779C209.844 108.648 209.636 108.466 209.474 108.246C209.312 108.026 209.2 107.774 209.146 107.506L208.731 105.508L208.687 105.4C206.667 102.036 202.782 99.5888 198.028 98.6917C193.797 97.8872 189.458 98.2968 185.276 98.6819C183.617 98.8379 181.743 99.0135 180.181 99.969C178.853 100.788 177.731 102.426 177.96 104.079C173.836 102.816 169.415 105.337 167.223 108.516C164.627 112.299 164.202 117.038 164.134 120.743C163.949 129.509 165.759 136.681 169.502 142.063C169.776 142.454 169.844 143.268 170.386 143.541L170.274 143.36C170.879 143.663 171.494 144.15 171.264 144.672C170.605 146.173 174.983 149.494 178.068 150.591C183.695 152.594 191.176 152.424 196.437 151.702L196.623 150.459C198.521 150.201 199.859 149.708 200.234 148.938C200.898 148.372 201.464 147.865 201.957 147.397L201.962 147.392C201.972 147.383 201.991 147.368 202.001 147.358C204.378 145.081 204.929 143.785 205.178 141.81C205.417 139.874 204.993 137.91 204.558 136.14C213.704 137.554 200.957 126.408 209.478 124.254C209.576 124.223 209.675 124.199 209.776 124.18C210.024 124.122 210.273 124.063 210.512 123.995C211.665 123.683 212.769 123.212 213.792 122.596C216.174 121.148 216.96 119.227 218.189 117.062C218.367 116.754 218.441 116.397 218.402 116.044C218.362 115.691 218.211 115.359 217.97 115.098Z" fill="#2F2E41"/>
<path d="M265.49 224.97C265.485 225.823 265.476 227.018 265.437 228.495C265.432 228.7 265.427 228.909 265.422 229.124C265.358 231.84 265.295 234.116 265.193 236.647C265.188 236.822 265.183 236.993 265.173 237.168C265.036 240.698 264.822 244.808 264.451 251.317C263.763 263.34 262.562 252.97 261.357 257.187C261.298 257.397 261.235 257.645 261.176 257.938C260.993 258.999 260.685 260.035 260.258 261.024C259.619 261.404 258.96 261.77 258.311 262.135C256.461 263.164 254.583 264.154 252.689 265.095C251.625 265.621 250.556 266.138 249.483 266.635C249.312 266.713 249.146 266.791 248.98 266.865C243.482 269.405 237.815 271.565 232.02 273.329C230.888 273.671 229.761 274.002 228.619 274.309C227.428 274.641 226.237 274.953 225.032 275.245C216.064 277.445 206.888 278.685 197.658 278.946C196.413 278.985 195.159 279 193.9 279C193.275 279 192.66 278.995 192.035 278.99C191.845 278.99 191.655 278.985 191.464 278.98C190.913 278.965 190.342 278.956 189.766 278.941C178.628 278.594 167.581 276.819 156.896 273.661L156.443 273.529C155.74 273.315 155.042 273.105 154.344 272.881C151.123 271.862 147.949 270.721 144.822 269.458C142.436 268.498 140.077 267.468 137.746 266.367C137.724 266.362 137.704 266.352 137.687 266.338C137.199 266.114 136.706 265.88 136.218 265.641C136.155 265.607 136.086 265.573 136.018 265.538C134.198 264.651 132.397 263.722 130.615 262.75C129.117 259.313 127.009 258.654 125.701 255.632C125.32 254.734 125.045 253.794 124.881 252.833C124.881 252.823 124.876 252.814 124.876 252.799C125.013 254.613 124.295 249.581 124.871 252.78C124.866 252.721 124.861 252.658 124.857 252.584C124.842 252.409 124.822 252.194 124.793 251.926C123.119 235.599 123.226 216.926 122.499 201.539C122.45 200.544 122.4 199.592 122.348 198.682C122.333 198.38 122.314 198.082 122.294 197.79C122.328 197.702 122.368 197.609 122.411 197.521C122.421 197.496 122.432 197.472 122.446 197.448C122.46 197.418 122.476 197.389 122.494 197.361C122.504 197.346 122.519 197.326 122.529 197.312C122.536 197.295 122.544 197.279 122.553 197.263C122.597 197.195 122.646 197.122 122.699 197.053C122.724 197.024 122.743 197 122.768 196.975C122.785 196.95 122.804 196.928 122.826 196.907C122.841 196.884 122.859 196.862 122.88 196.844C122.899 196.824 122.919 196.8 122.943 196.776C122.954 196.76 122.967 196.747 122.982 196.737C123.021 196.692 123.064 196.651 123.109 196.615C123.283 196.455 123.469 196.308 123.666 196.176C123.734 196.132 123.807 196.088 123.876 196.039C124.367 195.745 124.885 195.497 125.423 195.298C125.608 195.23 125.794 195.167 125.994 195.098C126.067 195.079 126.135 195.055 126.208 195.03C126.316 194.996 126.423 194.962 126.535 194.937C127.092 194.772 127.692 194.63 128.341 194.499C128.419 194.484 128.502 194.469 128.585 194.45C128.702 194.426 128.824 194.406 128.946 194.387C129.112 194.357 129.283 194.328 129.454 194.299C130.903 194.07 132.548 193.899 134.364 193.787C134.534 193.777 134.705 193.767 134.876 193.758C135.076 193.748 135.276 193.738 135.481 193.728C135.652 193.719 135.828 193.714 136.003 193.709C136.174 193.699 136.35 193.694 136.53 193.689C137.023 193.675 137.531 193.66 138.048 193.65C139.522 193.621 141.074 193.631 142.704 193.665C143.461 193.685 144.232 193.704 145.022 193.738C145.076 193.738 145.125 193.743 145.174 193.743C145.862 193.767 146.555 193.797 147.267 193.836C147.765 193.86 148.268 193.884 148.77 193.914C149.244 193.943 149.722 193.972 150.205 194.006C150.581 194.026 150.957 194.055 151.338 194.079C151.66 194.104 151.982 194.128 152.304 194.148L152.743 194.177C152.982 194.196 153.221 194.211 153.465 194.235C154.002 194.279 154.539 194.323 155.086 194.367C155.627 194.416 156.179 194.465 156.73 194.513C157.282 194.562 157.838 194.616 158.395 194.669C158.453 194.674 158.507 194.679 158.561 194.684C159.068 194.738 159.576 194.786 160.088 194.84C160.205 194.85 160.327 194.859 160.444 194.874C160.933 194.923 161.431 194.981 161.924 195.033C162.075 195.049 162.226 195.065 162.378 195.082C162.764 195.124 163.145 195.16 163.534 195.206C164.046 195.264 164.568 195.318 165.076 195.386C165.471 195.43 165.867 195.474 166.262 195.523C166.882 195.596 167.511 195.674 168.141 195.757C168.38 195.786 168.619 195.815 168.858 195.849C170.654 196.073 172.47 196.322 174.314 196.581C177.111 196.975 179.951 197.404 182.811 197.868C185.676 198.331 188.557 198.82 191.454 199.335C192.187 199.467 192.919 199.598 193.656 199.735C193.987 199.798 194.319 199.862 194.651 199.925C195.217 200.027 195.783 200.135 196.349 200.242C196.916 200.349 197.482 200.456 198.048 200.569C198.721 200.7 199.4 200.832 200.073 200.963C204.51 201.841 208.921 202.777 213.226 203.757C213.934 203.918 214.641 204.084 215.344 204.245C216.75 204.571 218.142 204.903 219.522 205.239C219.902 205.327 220.278 205.42 220.654 205.512C221.591 205.746 222.528 205.98 223.45 206.219L223.611 206.263C224.29 206.429 224.954 206.599 225.617 206.775C227.184 207.185 228.724 207.599 230.239 208.018C231.244 208.296 232.238 208.577 233.221 208.862C234.69 209.286 236.13 209.715 237.53 210.149C237.877 210.256 238.223 210.363 238.565 210.466C239.59 210.783 240.6 211.104 241.581 211.426C242.362 211.68 243.123 211.938 243.875 212.196C244.626 212.455 245.363 212.713 246.086 212.972C246.549 213.137 247.008 213.313 247.467 213.479C248.126 213.722 248.775 213.966 249.409 214.21C249.604 214.283 249.795 214.361 249.985 214.434C250.107 214.488 250.224 214.532 250.341 214.581C250.571 214.673 250.805 214.761 251.03 214.854C251.259 214.941 251.483 215.034 251.708 215.131C251.928 215.219 252.152 215.312 252.367 215.404C252.586 215.492 252.801 215.585 253.016 215.682C253.196 215.756 253.372 215.834 253.543 215.912C253.889 216.063 254.236 216.214 254.573 216.37C254.739 216.448 254.905 216.521 255.071 216.599L255.451 216.774C255.505 216.804 255.559 216.828 255.612 216.853C255.734 216.911 255.861 216.974 255.983 217.033C256.266 217.165 256.544 217.306 256.818 217.438C257.184 217.623 257.54 217.808 257.882 217.988C258.228 218.174 258.565 218.359 258.887 218.539C258.941 218.569 258.99 218.598 259.043 218.627C259.116 218.666 259.19 218.71 259.263 218.749C259.512 218.89 259.751 219.037 259.99 219.178C260.459 219.466 260.903 219.748 261.317 220.031C261.41 220.095 261.498 220.158 261.591 220.217C261.898 220.436 262.191 220.65 262.464 220.87C262.464 220.875 262.464 220.875 262.469 220.875C262.562 220.943 262.65 221.016 262.738 221.084C262.811 221.153 262.889 221.211 262.962 221.279C263.216 221.499 263.45 221.708 263.665 221.923C263.737 221.989 263.805 222.059 263.87 222.133C263.898 222.156 263.924 222.182 263.948 222.211C264.046 222.308 264.133 222.406 264.216 222.503C264.229 222.516 264.241 222.531 264.251 222.547C264.368 222.683 264.475 222.82 264.578 222.957C264.626 223.025 264.68 223.093 264.724 223.161C264.783 223.244 264.841 223.332 264.89 223.415C264.934 223.483 264.973 223.556 265.012 223.624C265.115 223.8 265.204 223.984 265.275 224.175C265.33 224.305 265.374 224.438 265.407 224.575C265.444 224.705 265.472 224.837 265.49 224.97Z" fill="#2F2E41"/>
<path opacity="0.2" d="M265.49 224.97C265.485 225.823 265.476 227.018 265.437 228.495C265.432 228.7 265.422 228.909 265.417 229.124C265.368 231.196 265.295 233.756 265.193 236.647C265.188 236.822 265.183 236.993 265.173 237.168C265.036 240.698 264.822 244.808 264.451 251.317C263.763 263.34 262.562 252.97 261.357 257.187C258.009 255.129 254.339 252.974 250.415 250.761C249.707 250.361 248.993 249.96 248.272 249.557C240.425 245.184 231.659 240.601 222.509 236.062C222.147 235.881 221.781 235.701 221.42 235.525C200.459 225.175 177.58 215.107 159.044 208.389C155.466 207.092 152.05 205.922 148.839 204.893C142.075 202.733 136.228 201.222 131.728 200.568C127.043 199.886 123.807 200.13 122.499 201.539C122.45 200.544 122.4 199.592 122.348 198.682C122.328 198.379 122.309 198.082 122.289 197.789C122.32 197.709 122.359 197.633 122.397 197.555C122.402 197.544 122.406 197.532 122.411 197.521C122.421 197.496 122.432 197.472 122.446 197.448C122.46 197.418 122.476 197.389 122.494 197.36C122.51 197.326 122.53 197.293 122.553 197.263C122.597 197.195 122.646 197.122 122.699 197.053C122.739 197.002 122.781 196.953 122.826 196.907C122.841 196.884 122.859 196.862 122.88 196.844C122.899 196.824 122.919 196.8 122.943 196.775C122.954 196.76 122.967 196.747 122.982 196.736C123.021 196.692 123.064 196.651 123.109 196.615C123.283 196.454 123.469 196.308 123.666 196.176C123.734 196.132 123.807 196.088 123.876 196.039C124.367 195.745 124.885 195.497 125.423 195.298C125.608 195.23 125.794 195.167 125.994 195.098C126.067 195.079 126.135 195.054 126.208 195.03C126.316 194.996 126.423 194.962 126.535 194.937C127.092 194.772 127.692 194.63 128.341 194.499C128.536 194.46 128.741 194.421 128.946 194.386C129.112 194.357 129.283 194.328 129.454 194.299C130.903 194.07 132.548 193.899 134.364 193.787C134.534 193.777 134.705 193.767 134.876 193.758C135.076 193.748 135.276 193.738 135.481 193.728C135.652 193.719 135.828 193.714 136.003 193.709C136.174 193.699 136.35 193.694 136.53 193.689C137.023 193.675 137.531 193.66 138.048 193.65C139.522 193.626 141.074 193.636 142.704 193.67C143.461 193.684 144.232 193.709 145.022 193.743C145.071 193.743 145.125 193.748 145.174 193.748C145.862 193.767 146.56 193.801 147.267 193.836C147.765 193.86 148.268 193.884 148.77 193.914C149.244 193.943 149.722 193.972 150.205 194.006C150.581 194.026 150.957 194.055 151.338 194.079C151.66 194.104 151.982 194.128 152.304 194.148C152.689 194.177 153.075 194.206 153.465 194.235C154.002 194.279 154.539 194.323 155.086 194.367C155.627 194.416 156.179 194.464 156.73 194.513C157.282 194.562 157.838 194.616 158.395 194.669C158.453 194.674 158.507 194.679 158.561 194.684C159.068 194.738 159.576 194.786 160.088 194.84C162.929 195.128 165.852 195.464 168.858 195.849C170.654 196.078 172.473 196.324 174.315 196.585C177.111 196.98 179.951 197.409 182.811 197.867C185.676 198.331 188.557 198.82 191.455 199.335C192.187 199.467 192.919 199.598 193.656 199.735C194.554 199.901 195.452 200.07 196.35 200.242C196.916 200.349 197.482 200.456 198.048 200.568C198.721 200.7 199.4 200.832 200.073 200.963C204.51 201.841 208.921 202.777 213.226 203.757C213.934 203.918 214.641 204.084 215.344 204.245C216.75 204.571 218.142 204.903 219.522 205.239C219.902 205.332 220.278 205.424 220.654 205.517C221.596 205.751 222.528 205.985 223.45 206.219V206.224C223.504 206.234 223.558 206.248 223.611 206.263C224.285 206.434 224.954 206.604 225.617 206.78C227.184 207.189 228.725 207.602 230.239 208.018C231.244 208.301 232.24 208.579 233.221 208.862C234.69 209.291 236.13 209.72 237.53 210.149C237.877 210.256 238.223 210.363 238.565 210.466C239.59 210.787 240.595 211.108 241.581 211.426C242.362 211.68 243.123 211.938 243.875 212.196C244.627 212.455 245.363 212.713 246.086 212.972C246.554 213.137 247.013 213.308 247.467 213.474C248.131 213.718 248.775 213.961 249.409 214.21C249.605 214.283 249.795 214.361 249.985 214.434C250.341 214.571 250.688 214.712 251.03 214.853C251.259 214.941 251.483 215.034 251.708 215.131C251.928 215.219 252.152 215.312 252.367 215.404C252.586 215.492 252.801 215.585 253.016 215.682C253.197 215.755 253.372 215.833 253.543 215.911C253.89 216.063 254.236 216.214 254.573 216.37C254.739 216.448 254.905 216.521 255.071 216.599L255.451 216.774C255.505 216.804 255.559 216.828 255.612 216.852C256.027 217.047 256.427 217.242 256.818 217.437C257.184 217.623 257.54 217.808 257.882 217.988C258.287 218.203 258.672 218.413 259.043 218.627C259.116 218.666 259.19 218.71 259.263 218.749C259.512 218.89 259.751 219.037 259.99 219.178C260.459 219.466 260.903 219.748 261.318 220.031C261.727 220.314 262.108 220.592 262.464 220.87C262.464 220.875 262.464 220.875 262.469 220.875C262.64 221.011 262.806 221.148 262.962 221.279C263.216 221.499 263.45 221.708 263.665 221.923C263.737 221.989 263.805 222.059 263.87 222.132C263.898 222.156 263.925 222.182 263.948 222.21C264.051 222.323 264.153 222.435 264.251 222.547C264.368 222.683 264.475 222.82 264.578 222.956C264.626 223.025 264.68 223.093 264.724 223.161C264.783 223.244 264.841 223.332 264.89 223.415C264.934 223.483 264.973 223.556 265.012 223.624C265.116 223.8 265.204 223.984 265.276 224.175C265.329 224.305 265.373 224.439 265.407 224.575C265.444 224.705 265.472 224.837 265.49 224.97Z" fill="black"/>
</g>
<defs>
<clipPath id="clip0_33_108">
<rect width="384" height="279" fill="white"/>
</clipPath>
</defs>
</svg>
