<svg width="399" height="385" viewBox="0 0 399 385" fill="none" xmlns="http://www.w3.org/2000/svg">
<g clip-path="url(#clip0_46_333)">
<path d="M311.692 61.969H284.581V321.922C284.581 326 283.867 330.039 282.479 333.807C281.092 337.575 279.058 340.999 276.493 343.883C273.929 346.767 270.885 349.055 267.535 350.616C264.184 352.176 260.594 352.98 256.967 352.98H49.6988V353.277C49.6988 357.356 50.4131 361.394 51.8008 365.162C53.1886 368.93 55.2226 372.354 57.7868 375.238C60.3511 378.122 63.3952 380.41 66.7455 381.971C70.0959 383.532 73.6867 384.335 77.3131 384.335H311.692C315.318 384.335 318.909 383.532 322.259 381.971C325.609 380.41 328.654 378.122 331.218 375.238C333.782 372.354 335.816 368.93 337.204 365.162C338.592 361.394 339.306 357.356 339.306 353.277V93.0269C339.306 88.9483 338.592 84.9097 337.204 81.1415C335.816 77.3734 333.782 73.9496 331.218 71.0656C328.654 68.1816 325.609 65.8939 322.259 64.3331C318.909 62.7723 315.318 61.969 311.692 61.969Z" fill="#F2F2F2"/>
<path d="M278.145 35.3022H11.4619C5.13168 35.3022 0 41.0739 0 48.1935V344.777C0 351.897 5.13168 357.668 11.4619 357.668H278.145C284.475 357.668 289.607 351.897 289.607 344.777V48.1935C289.607 41.0739 284.475 35.3022 278.145 35.3022Z" fill="#F2F2F2"/>
<path d="M27.6144 41.6892C21.7968 41.6892 16.2174 44.2884 12.1038 48.9151C7.99009 53.5418 5.67905 59.8169 5.67905 66.36V326.61C5.67905 333.154 7.99008 339.429 12.1038 344.055C16.2174 348.682 21.7968 351.281 27.6144 351.281H177.2C236.144 351.281 283.928 297.539 283.928 231.244V66.36C283.928 59.8169 281.617 53.5418 277.503 48.9151C273.39 44.2884 267.81 41.6892 261.993 41.6892H27.6144Z" fill="white"/>
<path d="M295.945 216.344C294.747 216.717 293.491 216.794 292.264 216.567C291.037 216.341 289.869 215.818 288.839 215.034C287.81 214.25 286.944 213.224 286.302 212.026C285.66 210.829 285.257 209.489 285.121 208.099L244.164 194.188L244.8 180.5L293.338 197.423C295.435 197.339 297.486 198.123 299.104 199.627C300.721 201.13 301.792 203.249 302.113 205.581C302.435 207.913 301.984 210.297 300.847 212.281C299.711 214.265 297.966 215.71 295.945 216.344Z" fill="#FFB6B6"/>
<path d="M158.051 145.739C153.904 141.846 159.976 122.554 158.339 116.962C158.241 116.623 158.148 116.284 158.06 115.943C157.874 115.222 157.916 114.45 158.177 113.759L173.571 105.615C177.582 107.459 181.278 110.072 184.493 113.338L208.274 143.886L231.899 167.884L242.265 173.081L276.616 190.314L276.26 191.468L276.257 191.472L272.481 203.805L272.481 203.812L280.034 209.734L255.306 205.544L238.951 197.957L223.203 190.653C199.952 174.915 161.697 166.757 158.051 145.739Z" fill="#00B0FF"/>
<path d="M267.651 287.304C267.197 287.537 266.691 287.606 266.201 287.504C265.71 287.402 265.26 287.133 264.91 286.733C264.56 286.333 264.329 285.822 264.246 285.269C264.163 284.716 264.233 284.148 264.447 283.641C264.413 283.361 264.389 283.16 264.355 282.88C264.315 282.833 264.275 282.787 264.235 282.741C260.17 278.104 253.14 281.318 253.069 287.828C253.005 293.607 252.445 299.62 253.738 305.117C254.311 307.546 255.254 309.845 256.525 311.912C248.474 303.309 242.161 292.859 238.016 281.272C236.978 278.363 236.086 275.391 235.343 272.37C234.737 269.893 234.228 267.391 233.817 264.864C231.602 251.148 232.311 237.037 235.887 223.69C238.602 219.992 240.243 215.447 240.59 210.667C240.72 208.947 240.627 207.214 240.316 205.523C239.945 205.758 236.467 199.534 236.615 198.989C235.737 198.303 234.594 198.28 233.674 197.639C229.095 194.453 225.289 197.085 225.346 204.194C221.709 208.837 223.194 213.148 227.462 216.014C230.177 217.838 231.687 221.28 234.25 223.388C234.172 223.691 234.085 223.991 234.007 224.294C232.584 229.864 231.649 235.578 231.217 241.353C229.924 235.747 226.739 229.726 223.735 226.274C220.315 222.339 215.639 219.834 211.315 217.049C206.122 213.704 199.813 219.029 201.419 225.514C201.434 225.576 201.45 225.639 201.466 225.702C201.989 225.78 202.508 225.879 203.025 225.999C203.675 226.153 204.269 226.525 204.728 227.065C205.188 227.605 205.491 228.289 205.599 229.027C205.707 229.764 205.615 230.521 205.333 231.199C205.052 231.876 204.596 232.442 204.024 232.823L203.965 232.862C204.733 234.522 205.612 236.113 206.594 237.623C208.619 255.3 218.648 257.55 230.093 252.696C230.395 252.727 230.69 252.762 230.99 252.786C231.283 260.628 232.48 268.394 234.554 275.888C235.789 280.304 237.34 284.6 239.191 288.735L239.118 288.592C236.599 284.202 232.81 280.924 228.391 279.312C221.852 276.984 214.304 278.443 207.695 277.182C204.513 276.574 202.049 280.323 203.682 283.453C203.708 283.503 203.735 283.553 203.761 283.603C204.681 283.609 205.6 283.679 206.513 283.814C207.036 283.892 207.555 283.991 208.072 284.111C208.722 284.265 209.316 284.637 209.775 285.177C210.235 285.717 210.538 286.401 210.646 287.138C210.754 287.876 210.661 288.633 210.38 289.311C210.099 289.988 209.643 290.554 209.071 290.935L209.012 290.973C208.97 291.001 208.934 291.026 208.891 291.053C211.537 294.074 214.625 296.561 218.02 298.403C225.305 311.348 235.667 308.217 244.795 299.377L244.801 299.374C247.983 304.523 251.633 309.287 255.69 313.588L273.616 305.508C273.601 305.255 273.576 304.998 273.554 304.748C271.937 305.613 270.231 306.252 268.476 306.651C269.152 304.216 269.822 301.767 270.498 299.332C270.516 299.284 270.531 299.235 270.543 299.186C270.883 297.942 271.232 296.703 271.572 295.459L271.572 295.458C270.582 292.562 269.264 289.822 267.652 287.304L267.651 287.304Z" fill="#F2F2F2"/>
<path d="M169.121 305.047L168.916 304.758C168.324 300.478 169.121 305.047 169.121 305.047Z" fill="#2F2E41"/>
<path d="M179.622 351.22H122.193C117.731 338.746 114.634 329.823 114.634 329.823C114.634 329.823 113.882 338.562 112.809 351.22H60.8899C60.404 316.823 59.7237 281.505 59.4998 270.288L159.155 272.785L169.067 286.923C169.101 287.159 169.135 287.42 169.177 287.714C169.578 290.586 174.974 321.422 179.622 351.22Z" fill="#2F2E41"/>
<path d="M178.751 109.295L178.742 109.275C178.425 108.614 177.915 108.096 177.298 107.808C170.993 102.305 164.089 99.797 156.341 101.512C155.073 97.1935 153.89 97.1935 153.89 97.1935L137.085 90.9512L134.668 74.3455L93.2632 72.7693L89.5002 93.4915C89.5002 93.4915 66.357 98.1575 66.357 101.532C66.357 104.906 70.2142 104.906 66.357 104.906C62.4998 104.906 61.467 101.05 58.1283 104.906C57.8423 105.23 57.5404 105.536 57.224 105.822C57.1855 105.86 57.1426 105.894 57.104 105.933C53.3309 109.27 50.3658 113.623 48.482 118.589C46.5983 123.555 45.8566 128.975 46.3253 134.348L53.444 213.993L61.0427 298.979L165.033 303.847L171.997 231.529L179.081 111.204C179.145 110.545 179.029 109.88 178.751 109.295Z" fill="#00B0FF"/>
<path d="M8.04373 322.875C8.63745 324.555 9.2366 325.786 9.8411 326.395L211.521 326.877C212.126 326.268 212.725 325.037 213.319 323.357C220.373 303.398 207.066 281.755 187.969 281.714L33.4036 281.384C14.333 281.344 0.999327 302.943 8.04373 322.875Z" fill="white"/>
<path d="M211.685 327.359L211.521 327.359L9.67689 326.876L9.5553 326.754C8.92666 326.121 8.302 324.91 7.64553 323.053C5.97593 318.41 5.3601 313.372 5.85359 308.394C6.34708 303.417 7.93436 298.655 10.4723 294.54C13.0063 290.339 16.4163 286.899 20.4044 284.522C24.3926 282.145 28.8376 280.902 33.3512 280.903H33.4044L187.97 281.233C192.5 281.242 196.959 282.499 200.957 284.893C204.956 287.287 208.373 290.746 210.909 294.967C213.444 299.095 215.027 303.867 215.517 308.853C216.007 313.839 215.389 318.884 213.717 323.535C213.06 325.392 212.436 326.603 211.807 327.236L211.685 327.359ZM23.316 325.868L194.324 325.285C206.395 325.244 215.275 312.138 211.698 299.172C211.36 297.875 210.855 296.64 210.199 295.508C207.741 291.417 204.43 288.065 200.555 285.745C196.68 283.424 192.359 282.206 187.968 282.197L33.4027 281.867H33.3512C31.3885 281.94 29.4531 282.406 27.6352 283.241C17.6512 287.49 10.975 298.171 10.4199 310.161C10.4128 310.314 10.4058 310.466 10.3987 310.619C10.3116 312.521 10.5583 314.424 11.1249 316.218C11.6915 318.013 12.5669 319.665 13.701 321.079C14.8351 322.493 16.2058 323.642 17.7348 324.46C19.2637 325.279 20.921 325.751 22.6121 325.849C22.8465 325.862 23.0812 325.869 23.316 325.868Z" fill="#E6E6E6"/>
<path d="M250.744 152.541C248.536 142.108 248.904 131.831 252.686 121.762C252.726 121.139 252.984 120.56 253.404 120.15C253.823 119.741 254.37 119.536 254.924 119.579L275.591 121.229C276.145 121.274 276.661 121.564 277.024 122.036C277.388 122.507 277.571 123.122 277.532 123.745L275.59 154.524C275.55 155.147 275.292 155.727 274.873 156.136C274.454 156.545 273.907 156.751 273.353 156.707L252.685 155.058C252.132 155.013 251.616 154.723 251.252 154.251C250.888 153.779 250.706 153.164 250.744 152.541Z" fill="#F2F2F2"/>
<path d="M252.916 143.371C251.149 138.23 252.279 131.158 254.165 123.584C254.202 123 254.444 122.457 254.836 122.074C255.229 121.691 255.741 121.499 256.26 121.539L274.022 122.957C274.541 122.999 275.024 123.271 275.364 123.712C275.705 124.154 275.876 124.73 275.84 125.314L274.112 152.703C274.075 153.286 273.833 153.829 273.44 154.212C273.047 154.596 272.535 154.788 272.016 154.747L261.013 153.869C258.703 153.682 256.553 152.471 255.035 150.503C253.517 148.535 252.755 145.97 252.916 143.371Z" fill="white"/>
<path d="M265.213 144.713C264.671 144.608 264.128 144.504 263.586 144.399C263.836 143.735 263.98 143.027 264.012 142.308C264.269 138.455 264.295 134.567 264.432 130.706C264.428 130.565 264.388 130.428 264.317 130.312C264.246 130.196 264.146 130.105 264.03 130.051C263.914 129.997 263.787 129.982 263.663 130.007C263.54 130.033 263.425 130.098 263.334 130.195C261.972 131.465 260.609 132.734 259.246 134.003C258.609 134.597 259.523 135.615 260.156 135.026C261.134 134.115 262.112 133.204 263.09 132.293C263 134.822 262.91 137.351 262.82 139.88C262.777 141.094 262.908 142.568 262.467 143.709C262.406 143.863 262.327 144.007 262.232 144.137C261.631 144.021 261.031 143.905 260.43 143.789C259.998 143.705 259.449 144.111 259.639 144.678C260.053 145.912 261.272 146.302 262.317 145.826C262.409 145.78 262.498 145.726 262.583 145.665L264.872 146.108C265.681 146.264 266.029 144.871 265.213 144.713Z" fill="#00B0FF"/>
<path d="M370.746 256.177C368.537 245.743 368.906 235.466 372.688 225.397C372.728 224.775 372.986 224.195 373.405 223.786C373.825 223.376 374.372 223.171 374.925 223.214L395.593 224.864C396.147 224.909 396.662 225.199 397.026 225.671C397.39 226.142 397.573 226.757 397.534 227.38L395.592 258.159C395.552 258.782 395.294 259.362 394.875 259.771C394.455 260.18 393.909 260.386 393.355 260.342L372.687 258.693C372.133 258.648 371.618 258.358 371.254 257.886C370.89 257.414 370.708 256.8 370.746 256.177Z" fill="#F2F2F2"/>
<path d="M372.918 247.007C371.15 241.865 372.281 234.794 374.166 227.219C374.204 226.636 374.445 226.093 374.838 225.709C375.231 225.326 375.743 225.134 376.262 225.175L394.024 226.592C394.543 226.634 395.025 226.906 395.366 227.348C395.707 227.789 395.878 228.365 395.842 228.949L394.114 256.338C394.076 256.921 393.835 257.464 393.442 257.847C393.049 258.231 392.537 258.423 392.018 258.382L381.015 257.504C378.705 257.317 376.555 256.106 375.037 254.138C373.519 252.17 372.757 249.606 372.918 247.007Z" fill="white"/>
<path d="M384.513 241.784C384.749 241.66 384.973 241.508 385.18 241.33C385.73 240.819 386.138 240.14 386.352 239.374C386.566 238.608 386.578 237.788 386.386 237.015C385.553 233.571 381.89 233.55 379.362 233.965C378.546 234.098 378.893 235.492 379.704 235.359C381.408 235.08 384.083 234.854 384.998 236.947C385.207 237.439 385.282 237.99 385.212 238.529C385.142 239.068 384.932 239.572 384.607 239.977C384.219 240.415 383.707 240.689 383.16 240.751C382.63 240.491 382.054 240.371 381.477 240.397C380.881 240.429 380.549 241.404 381.152 241.745C381.686 242.044 382.274 242.2 382.871 242.2C383.365 242.469 383.778 242.896 384.058 243.427C384.337 243.959 384.471 244.571 384.442 245.188C384.385 245.609 384.255 246.013 384.06 246.377C383.864 246.741 383.607 247.059 383.302 247.311C382.998 247.564 382.652 247.746 382.284 247.848C381.917 247.95 381.535 247.97 381.161 247.906L381.145 247.903C380.338 247.72 379.992 249.114 380.804 249.298C381.893 249.528 383.019 249.263 383.934 248.56C384.849 247.857 385.479 246.774 385.684 245.549C385.695 245.483 385.705 245.417 385.713 245.35C385.764 244.692 385.683 244.03 385.475 243.413C385.267 242.796 384.939 242.239 384.513 241.784Z" fill="#00B0FF"/>
<path d="M347.603 91.3242C345.394 80.8904 345.763 70.6137 349.545 60.5452C349.585 59.9222 349.843 59.3426 350.262 58.9333C350.682 58.5241 351.228 58.3187 351.782 58.3622L372.45 60.0116C373.004 60.0565 373.519 60.3466 373.883 60.8184C374.247 61.2902 374.429 61.905 374.391 62.528L372.449 93.3071C372.409 93.93 372.151 94.5096 371.732 94.9189C371.312 95.3281 370.766 95.5335 370.212 95.49L349.544 93.8406C348.99 93.7957 348.475 93.5056 348.111 93.0338C347.747 92.5621 347.564 91.9472 347.603 91.3242Z" fill="#F2F2F2"/>
<path d="M349.775 82.1541C348.007 77.0126 349.137 69.9412 351.023 62.3666C351.061 61.7832 351.302 61.2403 351.695 60.857C352.088 60.4738 352.6 60.2814 353.119 60.3221L370.881 61.7396C371.399 61.7817 371.882 62.0534 372.223 62.4952C372.564 62.9371 372.735 63.5129 372.699 64.0964L370.971 91.4856C370.933 92.069 370.692 92.6118 370.299 92.9951C369.906 93.3784 369.394 93.5707 368.875 93.53L357.872 92.6519C355.561 92.4645 353.411 91.2541 351.893 89.2861C350.375 87.318 349.613 84.7532 349.775 82.1541Z" fill="white"/>
<path d="M360.698 68.3711C358.877 67.6604 356.852 69.2799 356.645 71.3796C356.411 73.7596 358.687 75.6383 360.658 74.9915C361.451 74.7313 361.113 73.3354 360.316 73.5971C358.872 74.0712 357.331 72.3171 358.161 70.7489C358.35 70.3704 358.637 70.0655 358.983 69.8747C359.33 69.684 359.72 69.6165 360.101 69.6813C360.425 69.7822 360.724 69.9671 360.973 70.2211C361.221 70.4751 361.414 70.7912 361.535 71.144C362.243 72.9403 361.401 74.7638 360.285 76.0694C359.648 76.8139 358.901 77.3926 358.215 78.0713C357.881 78.3548 357.604 78.7137 357.402 79.125C357.199 79.5363 357.075 79.9908 357.038 80.4592C357.056 80.986 357.202 81.4972 357.46 81.9375C357.718 82.3778 358.077 82.7304 358.5 82.9573C359.597 83.5913 360.844 83.3897 362.01 83.1787C362.824 83.0312 362.479 81.6375 361.668 81.7843C360.648 81.9688 359.121 82.2485 358.475 81.0524C357.921 80.0281 359.061 79.1288 359.683 78.5839C361.244 77.2145 362.823 75.4461 363.058 73.1177C363.25 71.2103 362.388 69.0308 360.698 68.3711Z" fill="#00B0FF"/>
<path d="M47.0561 209.261L57.2392 214.419C52.4519 218.786 45.1618 224.662 38.0217 227.381L26.6773 218.68C22.4515 200.353 25.0401 181.468 30.1187 165.498C32.9325 156.625 36.6639 148.153 41.2361 140.259C40.7678 134.886 41.5097 129.467 43.3934 124.501C45.2771 119.535 48.242 115.182 52.0148 111.844C52.0577 111.806 52.0962 111.772 52.1348 111.733C55.8926 115.401 58.9622 119.875 61.164 124.893C63.3659 129.911 64.6556 135.373 64.9579 140.958L65.185 145.181L65.6393 153.501L66.7922 174.748L53.1205 198.657L47.0561 209.261Z" fill="#00B0FF"/>
<path d="M76.3521 299.97C76.4711 300.138 76.6224 300.273 76.7946 300.366C76.9669 300.459 77.1555 300.506 77.3464 300.505H146.922C147.112 300.505 147.3 300.457 147.472 300.365C147.643 300.273 147.795 300.139 147.914 299.972C148.034 299.806 148.12 299.612 148.165 299.404C148.209 299.196 148.212 298.979 148.173 298.77L147.093 293C147.048 292.765 146.952 292.546 146.813 292.363C146.674 292.181 146.496 292.04 146.296 291.954C146.151 291.89 145.997 291.858 145.842 291.858H78.4221C78.2667 291.858 78.1126 291.89 77.9678 291.954C77.7679 292.04 77.5903 292.181 77.451 292.363C77.3118 292.546 77.2154 292.765 77.1707 293L76.0907 298.77C76.0522 298.979 76.0558 299.196 76.101 299.403C76.1462 299.611 76.232 299.805 76.3521 299.97Z" fill="#2F2E41"/>
<path d="M49.716 170.807V261.071C49.7168 262.221 50.1234 263.324 50.8466 264.137C51.5698 264.951 52.5504 265.408 53.5732 265.409H172.504C173.526 265.408 174.507 264.951 175.23 264.137C175.953 263.324 176.36 262.221 176.361 261.071V170.807C176.358 169.658 175.951 168.556 175.228 167.744C174.505 166.932 173.525 166.475 172.504 166.474H53.5732C52.5513 166.475 51.5716 166.932 50.8487 167.744C50.1257 168.556 49.7184 169.658 49.716 170.807Z" fill="#3F3D56"/>
<path d="M98.1582 247.699V297.136H128.952V247.699C128.952 247.344 128.851 246.998 128.664 246.711C128.476 246.425 128.212 246.214 127.91 246.109C127.768 246.056 127.619 246.03 127.469 246.032H99.6453C99.2517 246.031 98.8738 246.206 98.595 246.518C98.3161 246.831 98.1589 247.255 98.1582 247.698V247.699ZM110.176 264.686C110.184 263.712 110.534 262.78 111.149 262.094C111.765 261.408 112.596 261.024 113.463 261.024C114.329 261.024 115.161 261.408 115.776 262.094C116.392 262.78 116.742 263.712 116.75 264.686V270.422C116.745 271.399 116.397 272.335 115.781 273.024C115.165 273.713 114.332 274.1 113.463 274.1C112.594 274.1 111.76 273.713 111.144 273.024C110.528 272.335 110.18 271.399 110.176 270.422V264.686Z" fill="#2F2E41"/>
<path d="M116.13 70.9186C130.93 70.9186 142.927 57.4248 142.927 40.7793C142.927 24.1337 130.93 10.6399 116.13 10.6399C101.33 10.6399 89.3323 24.1337 89.3323 40.7793C89.3323 57.4248 101.33 70.9186 116.13 70.9186Z" fill="#FFB6B6"/>
<path d="M148.215 35.5067C145.326 36.5155 142.541 37.1102 140.662 34.4448C138.783 31.7794 139.274 28.7318 136.48 27.447C134.223 26.4063 131.617 26.8523 129.342 27.8187C128.936 27.9885 128.539 28.1797 128.152 28.3708C127.935 28.1584 127.718 27.9567 127.482 27.7655C125.706 26.3448 123.513 25.7444 121.355 26.0878C122.932 26.9448 124.23 28.3378 125.065 30.0698C124.291 30.5052 123.459 30.8306 122.714 31.3122C112.48 37.9298 101.099 40.5949 102.028 29.5495C105.125 38.7242 102.717 41.9948 98.1759 50.373L97.9965 50.8615C98.4497 48.6634 95.2634 48.5593 92.511 49.3111C90.4781 49.8665 91.7937 55.1966 94.3993 58.8681C88.574 49.0032 79.849 33.9414 87.3938 26.3851C88.5065 25.2706 89.2048 23.6982 89.4048 19.674C89.5233 17.2879 93.1341 16.6901 95.0413 17.752C95.3173 14.1643 96.4322 10.7226 98.2727 7.77601C100.113 4.82942 102.614 2.4828 105.521 0.974219C111.356 -1.94596 117.29 2.54615 123.63 3.41653C127.148 3.89947 129.815 5.49286 129.956 10.5418C130.049 13.904 134.554 15.1079 137.499 15.7025C139.369 16.0742 141.474 15.8512 142.966 17.1786C144.694 18.7183 144.713 21.4261 144.703 24.0277C143.013 23.9735 141.346 24.4873 139.916 25.5037C141.666 25.5532 143.358 26.222 144.75 27.4151C144.777 27.4337 144.803 27.455 144.826 27.4788C145.336 31.8538 145.128 32.7777 148.215 35.5067Z" fill="#2F2E41"/>
<path d="M167.542 182.466C178.013 178.806 189.223 182.764 199.751 179.386C202.173 178.641 204.462 177.432 206.518 175.811C208.272 174.316 209.919 172.667 211.443 170.882C214.61 167.359 218.05 163.659 222.808 163.7C229.074 163.754 233.885 168.989 238.062 173.611C238.652 174.264 239.562 173.243 238.971 172.589C235.133 168.341 230.987 163.86 225.524 162.592C223.074 161.981 220.516 162.22 218.188 163.277C216.169 164.309 214.325 165.728 212.737 167.47C211.055 169.205 209.504 171.094 207.798 172.802C206.018 174.623 203.968 176.079 201.74 177.102C196.913 179.264 191.619 179.525 186.485 179.462C180.041 179.383 173.443 178.889 167.2 181.071C166.413 181.347 166.749 182.743 167.542 182.466Z" fill="#3F3D56"/>
<path d="M240.358 163.866L243.577 170.247L245.135 173.335C245.411 173.884 245.696 174.429 245.965 174.982C246.131 175.322 246.492 175.935 246.147 176.257C245.844 176.424 245.503 176.484 245.169 176.429C244.601 176.43 244.034 176.416 243.466 176.41L240.274 176.373L233.677 176.298C233.51 176.305 233.352 176.384 233.236 176.519C233.121 176.653 233.056 176.834 233.056 177.021C233.056 177.209 233.121 177.389 233.236 177.524C233.352 177.659 233.51 177.738 233.677 177.744C237.507 177.788 241.339 177.879 245.169 177.875C245.837 177.947 246.506 177.741 247.048 177.297C247.314 176.999 247.49 176.616 247.551 176.2C247.612 175.784 247.555 175.357 247.389 174.979C247.011 174.052 246.577 173.156 246.089 172.297L244.687 169.518L241.468 163.136C241.379 162.977 241.239 162.864 241.077 162.819C240.915 162.775 240.744 162.803 240.6 162.897C240.456 162.992 240.35 163.146 240.305 163.327C240.26 163.507 240.279 163.7 240.358 163.866Z" fill="#3F3D56"/>
<path d="M282.903 179.503H253.318C253.156 179.504 252.995 179.469 252.845 179.4C252.696 179.331 252.559 179.229 252.444 179.101C252.329 178.972 252.238 178.82 252.175 178.651C252.113 178.483 252.081 178.303 252.08 178.121C252.08 177.939 252.111 177.758 252.173 177.59C252.234 177.421 252.325 177.268 252.439 177.139C252.553 177.01 252.689 176.907 252.839 176.837C252.988 176.767 253.148 176.731 253.31 176.73C253.313 176.73 253.315 176.73 253.318 176.73H282.903C283.065 176.729 283.225 176.765 283.375 176.834C283.525 176.903 283.662 177.004 283.777 177.133C283.892 177.261 283.983 177.414 284.045 177.582C284.108 177.75 284.14 177.93 284.141 178.112C284.141 178.295 284.11 178.475 284.048 178.644C283.987 178.812 283.896 178.965 283.782 179.095C283.668 179.224 283.532 179.326 283.382 179.396C283.233 179.467 283.072 179.503 282.91 179.503C282.908 179.503 282.905 179.503 282.903 179.503Z" fill="#E6E6E6"/>
<path d="M282.903 201.835H253.318C253.156 201.835 252.996 201.8 252.846 201.731C252.696 201.661 252.56 201.56 252.445 201.431C252.33 201.303 252.239 201.151 252.177 200.983C252.114 200.815 252.082 200.634 252.081 200.452C252.081 200.27 252.112 200.09 252.174 199.921C252.235 199.753 252.326 199.6 252.44 199.471C252.554 199.342 252.69 199.239 252.839 199.169C252.988 199.099 253.149 199.062 253.31 199.062C253.313 199.062 253.315 199.062 253.318 199.062H282.903C283.065 199.061 283.225 199.096 283.375 199.166C283.525 199.235 283.661 199.336 283.776 199.465C283.89 199.593 283.982 199.746 284.044 199.914C284.107 200.082 284.139 200.262 284.139 200.444C284.14 200.626 284.108 200.806 284.047 200.975C283.985 201.143 283.895 201.296 283.781 201.425C283.667 201.555 283.531 201.657 283.382 201.727C283.232 201.798 283.072 201.834 282.91 201.835C282.908 201.835 282.905 201.835 282.903 201.835Z" fill="#E6E6E6"/>
<path d="M311.946 190.669H253.318C253.156 190.67 252.995 190.634 252.845 190.565C252.696 190.496 252.559 190.395 252.444 190.266C252.329 190.138 252.238 189.985 252.175 189.817C252.113 189.649 252.081 189.469 252.08 189.287C252.08 189.104 252.111 188.924 252.173 188.755C252.234 188.587 252.325 188.434 252.439 188.304C252.553 188.175 252.689 188.073 252.839 188.003C252.988 187.932 253.148 187.896 253.31 187.896C253.313 187.896 253.315 187.896 253.318 187.896H311.946C312.108 187.895 312.268 187.93 312.418 187.999C312.568 188.068 312.704 188.17 312.819 188.298C312.934 188.427 313.026 188.579 313.088 188.748C313.151 188.916 313.183 189.096 313.183 189.278C313.184 189.46 313.153 189.641 313.091 189.809C313.029 189.978 312.939 190.131 312.825 190.26C312.71 190.389 312.574 190.492 312.425 190.562C312.275 190.632 312.115 190.668 311.953 190.669C311.951 190.669 311.948 190.669 311.946 190.669Z" fill="#E6E6E6"/>
<path d="M272.693 166.409C279.202 156.485 290.318 152.205 297.022 142.47C298.58 140.256 299.788 137.757 300.591 135.082C301.216 132.708 301.675 130.283 301.963 127.829C302.659 122.88 303.482 117.608 307.337 114.471C312.414 110.34 319.047 111.352 324.847 112.294C325.012 112.316 325.179 112.265 325.312 112.151C325.445 112.038 325.533 111.87 325.558 111.685C325.583 111.499 325.543 111.31 325.447 111.157C325.35 111.004 325.205 110.899 325.041 110.865C319.712 109.999 314.011 109.151 308.942 111.769C306.646 112.909 304.711 114.806 303.393 117.208C302.309 119.385 301.57 121.756 301.209 124.217C300.767 126.736 300.512 129.292 300.037 131.804C299.562 134.457 298.677 136.996 297.421 139.305C294.671 144.262 290.543 147.999 286.374 151.369C281.14 155.598 275.564 159.596 271.683 165.513C271.194 166.26 272.2 167.161 272.693 166.409Z" fill="#3F3D56"/>
<path d="M321.564 102.912L327.519 105.91L330.4 107.36C330.912 107.618 331.428 107.867 331.937 108.134C332.249 108.297 332.863 108.55 332.755 109.04C332.681 109.373 332.283 109.642 332.057 109.83C331.6 110.209 331.135 110.576 330.675 110.949L328.084 113.046L322.729 117.381C322.598 117.497 322.512 117.666 322.49 117.851C322.468 118.037 322.511 118.226 322.609 118.377C322.708 118.528 322.855 118.63 323.02 118.661C323.184 118.693 323.353 118.651 323.49 118.546C326.599 116.029 329.734 113.55 332.818 110.995C333.395 110.608 333.825 109.997 334.028 109.277C334.085 108.86 334.025 108.434 333.855 108.058C333.685 107.682 333.415 107.376 333.082 107.182C332.289 106.687 331.467 106.254 330.622 105.887L328.029 104.582L322.074 101.585C321.919 101.516 321.746 101.518 321.592 101.59C321.438 101.662 321.315 101.799 321.249 101.971C321.183 102.144 321.178 102.338 321.237 102.514C321.296 102.689 321.413 102.832 321.564 102.912Z" fill="#3F3D56"/>
<path d="M375.047 110.574H345.462C345.3 110.574 345.14 110.539 344.99 110.47C344.84 110.401 344.703 110.299 344.589 110.171C344.474 110.043 344.382 109.89 344.32 109.722C344.257 109.554 344.225 109.374 344.224 109.191C344.224 109.009 344.255 108.829 344.317 108.66C344.378 108.492 344.469 108.338 344.583 108.209C344.698 108.08 344.833 107.978 344.983 107.907C345.132 107.837 345.293 107.801 345.455 107.801C345.457 107.801 345.46 107.801 345.462 107.801H375.047C375.209 107.8 375.37 107.835 375.52 107.904C375.67 107.973 375.806 108.075 375.921 108.203C376.036 108.332 376.127 108.484 376.19 108.652C376.252 108.821 376.285 109.001 376.285 109.183C376.286 109.365 376.254 109.546 376.193 109.714C376.131 109.883 376.04 110.036 375.926 110.165C375.812 110.294 375.676 110.397 375.527 110.467C375.377 110.537 375.217 110.573 375.055 110.574C375.052 110.574 375.05 110.574 375.047 110.574Z" fill="#00B0FF"/>
<path d="M295.408 210.183C301.917 220.108 313.033 224.387 319.736 234.123C321.295 236.336 322.502 238.835 323.306 241.511C323.931 243.884 324.39 246.309 324.678 248.763C325.374 253.712 326.197 258.984 330.052 262.121C335.129 266.252 341.762 265.24 347.561 264.298C347.727 264.276 347.894 264.327 348.027 264.441C348.159 264.555 348.248 264.722 348.273 264.907C348.298 265.093 348.258 265.282 348.162 265.435C348.065 265.588 347.919 265.693 347.755 265.728C342.426 266.593 336.726 267.441 331.656 264.823C329.36 263.683 327.425 261.786 326.107 259.384C325.024 257.207 324.285 254.836 323.923 252.375C323.482 249.856 323.226 247.3 322.752 244.788C322.277 242.135 321.392 239.596 320.136 237.287C317.386 232.33 313.257 228.593 309.088 225.223C303.855 220.994 298.279 216.996 294.398 211.079C293.908 210.332 294.915 209.431 295.408 210.183Z" fill="#3F3D56"/>
<path d="M344.279 273.68L350.233 270.682L353.115 269.232C353.627 268.974 354.143 268.725 354.651 268.459C354.964 268.295 355.578 268.042 355.469 267.552C355.395 267.219 354.998 266.951 354.771 266.762C354.315 266.383 353.85 266.016 353.389 265.644L350.798 263.546L345.443 259.212C345.313 259.095 345.227 258.927 345.205 258.741C345.183 258.555 345.225 258.367 345.324 258.216C345.423 258.065 345.57 257.962 345.734 257.931C345.899 257.899 346.067 257.941 346.205 258.047C349.314 260.563 352.449 263.043 355.533 265.597C356.109 265.985 356.539 266.596 356.743 267.315C356.8 267.732 356.74 268.158 356.57 268.534C356.4 268.91 356.129 269.217 355.796 269.41C355.004 269.905 354.182 270.338 353.336 270.705L350.743 272.01L344.789 275.007C344.634 275.076 344.461 275.074 344.307 275.002C344.153 274.93 344.03 274.793 343.964 274.621C343.897 274.449 343.893 274.254 343.952 274.079C344.011 273.903 344.128 273.76 344.279 273.68Z" fill="#3F3D56"/>
<path d="M397.762 270.124H368.177C367.85 270.125 367.536 269.98 367.304 269.721C367.072 269.463 366.941 269.111 366.94 268.743C366.938 268.376 367.067 268.023 367.297 267.762C367.526 267.501 367.839 267.353 368.166 267.351C368.169 267.351 368.173 267.351 368.177 267.351H397.762C398.089 267.35 398.402 267.494 398.634 267.753C398.866 268.012 398.997 268.364 398.999 268.731C399 269.099 398.872 269.452 398.642 269.713C398.412 269.974 398.099 270.122 397.773 270.124C397.769 270.124 397.765 270.124 397.762 270.124Z" fill="#00B0FF"/>
<path d="M60.5011 216.231C59.941 217.48 59.1465 218.576 58.1725 219.445C57.1985 220.314 56.0683 220.935 54.86 221.264C53.6518 221.594 52.3944 221.624 51.1747 221.353C49.9551 221.082 48.8023 220.516 47.7961 219.695L16.9834 236.187L14.9184 226.474L46.298 205.676C47.6531 203.874 49.5489 202.693 51.6261 202.358C53.7033 202.023 55.8176 202.557 57.5683 203.858C59.319 205.159 60.5845 207.138 61.1251 209.418C61.6656 211.699 61.4436 214.123 60.5011 216.231Z" fill="#FFB6B6"/>
<path d="M48.6275 166.138L26.9458 215.965L36.1088 211.294L42.486 208.041L45.6832 221.701C45.6832 221.701 43.566 224.015 40.2274 227.056C35.4402 231.424 28.1501 237.299 21.0099 240.018C15.4213 242.149 9.93121 242.346 5.80829 238.374C-2.01755 230.836 5.63257 200.897 13.0255 178.102C17.9756 162.836 22.8057 150.781 22.8057 150.781C22.8057 134.681 50.5855 111.531 55.7413 108.364C58.6856 106.562 59.4998 109.187 59.4998 109.187L43.3431 135.79L48.1732 157.818L49.5404 164.041L48.6275 166.138Z" fill="#00B0FF"/>
</g>
<defs>
<clipPath id="clip0_46_333">
<rect width="399" height="384.335" fill="white"/>
</clipPath>
</defs>
</svg>
