<svg width="640" height="257" viewBox="0 0 640 257" fill="none" xmlns="http://www.w3.org/2000/svg">
<g clip-path="url(#clip0_37_224)">
<path d="M577.299 106.02H201.807C200.213 106.02 198.684 106.606 197.557 107.65C196.429 108.694 195.796 110.109 195.796 111.585C195.796 113.061 196.429 114.476 197.557 115.52C198.684 116.563 200.213 117.15 201.807 117.15H212.443V250.276C212.443 251.752 213.077 253.167 214.204 254.211C215.331 255.254 216.861 255.84 218.455 255.84C220.049 255.84 221.578 255.254 222.706 254.211C223.833 253.167 224.466 251.752 224.466 250.276L224.558 117.15H525.928L553.715 250.276C553.715 251.752 554.348 253.167 555.476 254.211C556.603 255.254 558.132 255.84 559.727 255.84C561.321 255.84 562.85 255.254 563.977 254.211C565.105 253.167 565.738 251.752 565.738 250.276L567.487 117.15H577.299C578.893 117.15 580.422 116.563 581.55 115.52C582.677 114.476 583.31 113.061 583.31 111.585C583.31 110.109 582.677 108.694 581.55 107.65C580.422 106.606 578.893 106.02 577.299 106.02Z" fill="#CCCCCC"/>
<path d="M266.894 81.2243V104.79H203.114C201.442 104.843 199.776 104.592 198.209 104.049C196.643 103.507 195.207 102.684 193.984 101.628C192.761 100.572 191.774 99.3036 191.081 97.8946C190.387 96.4857 190.001 94.9641 189.942 93.4168C189.884 91.8695 190.156 90.3267 190.742 88.8766C191.328 87.4265 192.217 86.0974 193.357 84.9652C194.498 83.833 195.869 82.9199 197.391 82.2781C198.913 81.6362 200.557 81.2781 202.228 81.2243C202.523 81.2148 202.819 81.2148 203.114 81.2243L266.894 81.2243Z" fill="#F2F2F2"/>
<path d="M268.461 104.608C268.46 104.849 268.357 105.079 268.174 105.249C267.99 105.419 267.741 105.515 267.481 105.515H201.978C198.422 105.512 195.012 104.203 192.499 101.875C189.985 99.5463 188.573 96.3893 188.573 93.0976C188.573 89.8059 189.985 86.6489 192.499 84.3205C195.012 81.9921 198.422 80.6828 201.978 80.6805H267.481C267.61 80.6802 267.738 80.7035 267.857 80.7489C267.976 80.7943 268.084 80.861 268.175 80.9452C268.267 81.0294 268.339 81.1294 268.388 81.2395C268.438 81.3496 268.463 81.4677 268.463 81.5869C268.463 81.7061 268.438 81.8242 268.388 81.9343C268.339 82.0444 268.267 82.1444 268.175 82.2286C268.084 82.3128 267.976 82.3795 267.857 82.4249C267.738 82.4704 267.61 82.4936 267.481 82.4933H201.978C198.943 82.4975 196.033 83.6166 193.889 85.6049C191.744 87.5931 190.539 90.2879 190.539 93.0976C190.539 95.9073 191.744 98.6021 193.889 100.59C196.033 102.579 198.943 103.698 201.978 103.702H267.481C267.741 103.702 267.99 103.798 268.174 103.968C268.357 104.137 268.46 104.368 268.461 104.608Z" fill="#00B0FF"/>
<path d="M266.894 86.6625H198.355C198.303 86.6627 198.253 86.6439 198.216 86.6103C198.18 86.5766 198.159 86.5308 198.158 86.4828C198.158 86.4349 198.178 86.3887 198.214 86.3544C198.25 86.3202 198.3 86.3006 198.351 86.2999H266.894C266.945 86.3004 266.995 86.3197 267.031 86.3536C267.067 86.3876 267.088 86.4334 267.088 86.4812C267.088 86.5289 267.067 86.5748 267.031 86.6087C266.995 86.6427 266.945 86.662 266.894 86.6625Z" fill="#CCCCCC"/>
<path d="M266.894 91.0129H198.355C198.303 91.0132 198.253 90.9944 198.216 90.9608C198.18 90.9271 198.159 90.8813 198.158 90.8333C198.158 90.7854 198.178 90.7392 198.214 90.7049C198.25 90.6706 198.3 90.651 198.351 90.6504H266.894C266.945 90.6509 266.995 90.6702 267.031 90.7041C267.067 90.7381 267.088 90.7839 267.088 90.8317C267.088 90.8794 267.067 90.9252 267.031 90.9592C266.995 90.9931 266.945 91.0124 266.894 91.0129Z" fill="#CCCCCC"/>
<path d="M266.894 95.3635H198.355C198.303 95.3638 198.253 95.345 198.216 95.3113C198.18 95.2777 198.159 95.2319 198.158 95.1839C198.158 95.136 198.178 95.0898 198.214 95.0555C198.25 95.0212 198.3 95.0016 198.351 95.001H266.894C266.945 95.0015 266.995 95.0208 267.031 95.0547C267.067 95.0887 267.088 95.1345 267.088 95.1822C267.088 95.23 267.067 95.2758 267.031 95.3098C266.995 95.3437 266.945 95.363 266.894 95.3635Z" fill="#CCCCCC"/>
<path d="M266.894 99.714H198.355C198.303 99.7142 198.253 99.6955 198.216 99.6618C198.18 99.6281 198.159 99.5823 198.158 99.5344C198.158 99.4864 198.178 99.4402 198.214 99.406C198.25 99.3717 198.3 99.3521 198.351 99.3514H266.894C266.945 99.3519 266.995 99.3712 267.031 99.4052C267.067 99.4391 267.088 99.4849 267.088 99.5327C267.088 99.5805 267.067 99.6263 267.031 99.6602C266.995 99.6942 266.945 99.7135 266.894 99.714Z" fill="#CCCCCC"/>
<path d="M254.871 56.397V79.9622H191.091C187.715 80.071 184.431 78.9338 181.96 76.8011C179.49 74.6683 178.037 71.7145 177.919 68.5895C177.802 65.4646 179.03 62.4245 181.334 60.1379C183.638 57.8514 186.829 56.5057 190.205 56.397C190.5 56.3875 190.795 56.3875 191.091 56.397H254.871Z" fill="#F2F2F2"/>
<path d="M256.437 79.7809C256.437 80.0212 256.334 80.2517 256.151 80.4217C255.967 80.5916 255.718 80.6871 255.458 80.6872H189.955C186.397 80.6872 182.985 79.379 180.47 77.0504C177.954 74.7217 176.541 71.5634 176.541 68.2702C176.541 64.977 177.954 61.8187 180.47 59.49C182.985 57.1614 186.397 55.8531 189.955 55.8531H255.458C255.587 55.8531 255.714 55.8766 255.833 55.9221C255.952 55.9677 256.06 56.0344 256.151 56.1186C256.242 56.2028 256.314 56.3027 256.363 56.4127C256.412 56.5226 256.437 56.6405 256.437 56.7595C256.437 56.8785 256.412 56.9964 256.363 57.1063C256.314 57.2163 256.242 57.3162 256.151 57.4004C256.06 57.4846 255.952 57.5513 255.833 57.5969C255.714 57.6424 255.587 57.6659 255.458 57.6659H189.955C186.916 57.6659 184.003 58.7831 181.854 60.7718C179.706 62.7605 178.499 65.4578 178.499 68.2702C178.499 71.0827 179.706 73.7799 181.854 75.7686C184.003 77.7573 186.916 78.8746 189.955 78.8746H255.458C255.718 78.8747 255.967 78.9702 256.151 79.1401C256.334 79.3101 256.437 79.5406 256.437 79.7809Z" fill="#3F3D56"/>
<path d="M254.871 61.8351H186.332C186.28 61.8353 186.23 61.8166 186.193 61.7829C186.156 61.7492 186.135 61.7034 186.135 61.6555C186.135 61.6075 186.155 61.5613 186.191 61.5271C186.227 61.4928 186.276 61.4732 186.328 61.4725H254.871C254.922 61.473 254.972 61.4923 255.008 61.5263C255.044 61.5602 255.065 61.606 255.065 61.6538C255.065 61.7015 255.044 61.7474 255.008 61.7813C254.972 61.8153 254.922 61.8346 254.871 61.8351Z" fill="#CCCCCC"/>
<path d="M254.871 66.1857H186.332C186.28 66.1859 186.23 66.1672 186.193 66.1335C186.156 66.0998 186.135 66.054 186.135 66.0061C186.135 65.9581 186.155 65.9119 186.191 65.8777C186.227 65.8434 186.276 65.8237 186.328 65.8231H254.871C254.922 65.8236 254.972 65.8429 255.008 65.8769C255.044 65.9108 255.065 65.9566 255.065 66.0044C255.065 66.0522 255.044 66.098 255.008 66.1319C254.972 66.1659 254.922 66.1852 254.871 66.1857Z" fill="#CCCCCC"/>
<path d="M254.871 70.5361H186.332C186.28 70.5364 186.23 70.5176 186.193 70.484C186.156 70.4503 186.135 70.4045 186.135 70.3565C186.135 70.3086 186.155 70.2624 186.191 70.2281C186.227 70.1938 186.276 70.1742 186.328 70.1736H254.871C254.922 70.1741 254.972 70.1934 255.008 70.2273C255.044 70.2612 255.065 70.3071 255.065 70.3549C255.065 70.4026 255.044 70.4484 255.008 70.4824C254.972 70.5163 254.922 70.5356 254.871 70.5361Z" fill="#CCCCCC"/>
<path d="M254.871 74.8866H186.332C186.28 74.8868 186.23 74.8681 186.193 74.8344C186.156 74.8008 186.135 74.7549 186.135 74.707C186.135 74.659 186.155 74.6129 186.191 74.5786C186.227 74.5443 186.276 74.5247 186.328 74.524H254.871C254.922 74.5245 254.972 74.5438 255.008 74.5778C255.044 74.6117 255.065 74.6576 255.065 74.7053C255.065 74.7531 255.044 74.7989 255.008 74.8328C254.972 74.8668 254.922 74.8861 254.871 74.8866Z" fill="#CCCCCC"/>
<path d="M329.067 189.407V168.861C329.067 167.952 328.677 167.081 327.983 166.439C327.289 165.797 326.348 165.436 325.367 165.436H241.205C240.224 165.436 239.283 165.797 238.589 166.439C237.896 167.081 237.506 167.952 237.506 168.861V189.407H329.067Z" fill="#CCCCCC"/>
<path d="M329.067 197.112H237.506V223.652H329.067V197.112Z" fill="#CCCCCC"/>
<path d="M237.506 231.357V251.904C237.506 252.812 237.896 253.683 238.589 254.325C239.283 254.967 240.224 255.328 241.205 255.328H325.367C326.348 255.328 327.289 254.967 327.983 254.325C328.677 253.683 329.067 252.812 329.067 251.904V231.357H237.506Z" fill="#CCCCCC"/>
<path d="M282.824 180.846C284.356 180.846 285.598 179.696 285.598 178.278C285.598 176.859 284.356 175.709 282.824 175.709C281.291 175.709 280.049 176.859 280.049 178.278C280.049 179.696 281.291 180.846 282.824 180.846Z" fill="white"/>
<path d="M282.824 215.091C284.356 215.091 285.598 213.941 285.598 212.522C285.598 211.104 284.356 209.954 282.824 209.954C281.291 209.954 280.049 211.104 280.049 212.522C280.049 213.941 281.291 215.091 282.824 215.091Z" fill="white"/>
<path d="M282.972 248.61C284.505 248.61 285.747 247.46 285.747 246.042C285.747 244.624 284.505 243.474 282.972 243.474C281.44 243.474 280.198 244.624 280.198 246.042C280.198 247.46 281.44 248.61 282.972 248.61Z" fill="white"/>
<path d="M318.686 142.009V165.574H254.906C251.531 165.68 248.249 164.542 245.781 162.41C243.313 160.277 241.86 157.325 241.743 154.201C241.625 151.078 242.853 148.039 245.155 145.753C247.457 143.466 250.645 142.12 254.019 142.009C254.315 141.999 254.61 141.999 254.906 142.009H318.686Z" fill="#F2F2F2"/>
<path d="M320.253 165.392C320.252 165.633 320.149 165.863 319.966 166.033C319.782 166.203 319.533 166.299 319.273 166.299H253.77C250.213 166.3 246.801 164.993 244.285 162.666C241.769 160.339 240.355 157.182 240.352 153.889C240.35 150.597 241.761 147.438 244.274 145.108C246.787 142.778 250.197 141.468 253.754 141.465H319.273C319.402 141.464 319.53 141.488 319.649 141.533C319.768 141.578 319.876 141.645 319.967 141.729C320.059 141.814 320.131 141.914 320.18 142.024C320.23 142.134 320.255 142.252 320.255 142.371C320.255 142.49 320.23 142.608 320.18 142.718C320.131 142.829 320.059 142.929 319.967 143.013C319.876 143.097 319.768 143.164 319.649 143.209C319.53 143.255 319.402 143.278 319.273 143.277H253.77C250.734 143.281 247.824 144.4 245.679 146.388C243.534 148.377 242.329 151.072 242.329 153.882C242.329 156.692 243.534 159.387 245.679 161.375C247.824 163.364 250.734 164.482 253.77 164.486H319.273C319.533 164.486 319.782 164.582 319.966 164.752C320.149 164.922 320.252 165.152 320.253 165.392Z" fill="#3F3D56"/>
<path d="M318.686 147.447H250.147C250.095 147.447 250.045 147.428 250.008 147.394C249.972 147.361 249.951 147.315 249.95 147.267C249.95 147.219 249.97 147.173 250.006 147.139C250.042 147.104 250.092 147.085 250.143 147.084H318.686C318.737 147.085 318.787 147.104 318.823 147.138C318.859 147.172 318.88 147.218 318.88 147.265C318.88 147.313 318.859 147.359 318.823 147.393C318.787 147.427 318.737 147.446 318.686 147.447Z" fill="#CCCCCC"/>
<path d="M318.686 151.797H250.147C250.095 151.797 250.045 151.779 250.008 151.745C249.972 151.711 249.951 151.666 249.95 151.618C249.95 151.57 249.97 151.524 250.006 151.489C250.042 151.455 250.092 151.435 250.143 151.435H318.686C318.737 151.435 318.787 151.454 318.823 151.488C318.859 151.522 318.88 151.568 318.88 151.616C318.88 151.664 318.859 151.71 318.823 151.744C318.787 151.777 318.737 151.797 318.686 151.797Z" fill="#CCCCCC"/>
<path d="M318.686 156.148H250.147C250.095 156.148 250.045 156.129 250.008 156.096C249.972 156.062 249.951 156.016 249.95 155.968C249.95 155.92 249.97 155.874 250.006 155.84C250.042 155.805 250.092 155.786 250.143 155.785H318.686C318.737 155.786 318.787 155.805 318.823 155.839C318.859 155.873 318.88 155.919 318.88 155.966C318.88 156.014 318.859 156.06 318.823 156.094C318.787 156.128 318.737 156.147 318.686 156.148Z" fill="#CCCCCC"/>
<path d="M318.686 160.498H250.147C250.095 160.498 250.045 160.48 250.008 160.446C249.972 160.412 249.951 160.367 249.95 160.319C249.95 160.271 249.97 160.224 250.006 160.19C250.042 160.156 250.092 160.136 250.143 160.136H318.686C318.737 160.136 318.787 160.155 318.823 160.189C318.859 160.223 318.88 160.269 318.88 160.317C318.88 160.365 318.859 160.41 318.823 160.444C318.787 160.478 318.737 160.498 318.686 160.498Z" fill="#CCCCCC"/>
<path d="M243.779 48.5357H214.721C214.445 48.5355 214.173 48.5941 213.925 48.7069L206.591 52.1057C206.35 52.2006 206.144 52.3592 205.999 52.5617C205.855 52.7642 205.777 53.0015 205.777 53.2443C205.777 53.4871 205.855 53.7244 205.999 53.9269C206.144 54.1294 206.35 54.288 206.591 54.3829L213.925 57.7817C214.173 57.8945 214.445 57.9531 214.721 57.9529H243.779C244.18 57.9744 244.573 57.8489 244.875 57.6037C245.176 57.3586 245.361 57.0134 245.389 56.643V49.8455C245.361 49.4751 245.176 49.13 244.875 48.8848C244.573 48.6397 244.18 48.5142 243.779 48.5357Z" fill="#3F3D56"/>
<path d="M245.389 49.8456V56.6431C245.361 57.0135 245.176 57.3586 244.875 57.6038C244.573 57.849 244.18 57.9744 243.779 57.953H237.99V48.5357H243.779C244.18 48.5142 244.573 48.6397 244.875 48.8849C245.176 49.13 245.361 49.4752 245.389 49.8456Z" fill="#00B0FF"/>
<path d="M69.5624 181.731C73.3041 182.948 77.3216 183.253 81.2276 182.616C85.1337 181.979 88.7967 180.422 91.8638 178.094C99.6749 172.025 102.124 162.027 104.117 152.769C106.081 143.641 108.046 134.513 110.011 125.386L97.671 133.251C88.797 138.907 79.7231 144.744 73.5789 152.937C67.4346 161.129 64.7526 172.313 69.6893 181.178" fill="#E6E6E6"/>
<path d="M70.6172 214.884C69.3683 206.462 68.0841 197.933 68.9601 189.422C69.7382 181.863 72.2295 174.479 77.3015 168.426C79.9937 165.219 83.2697 162.471 86.982 160.306C87.95 159.74 88.841 161.16 87.8772 161.723C81.4538 165.481 76.4855 171.03 73.6887 177.57C70.5996 184.843 70.1036 192.772 70.6359 200.498C70.9578 205.17 71.6401 209.811 72.3276 214.447C72.3818 214.657 72.348 214.878 72.233 215.065C72.118 215.253 71.9304 215.393 71.7082 215.457C71.4814 215.514 71.2397 215.485 71.0355 215.378C70.8313 215.27 70.6809 215.093 70.6172 214.884Z" fill="#F2F2F2"/>
<path d="M82.6467 199.982C84.2515 202.24 86.4574 204.077 89.0518 205.317C91.6462 206.556 94.5418 207.156 97.4595 207.059C104.958 206.73 111.209 201.885 116.837 197.286L133.481 183.682L122.465 183.194C114.543 182.843 106.417 182.516 98.8714 184.777C91.3259 187.039 84.367 192.481 82.9873 199.711" fill="#E6E6E6"/>
<path d="M67.0876 219.725C73.0989 209.878 80.0716 198.936 92.5304 195.438C95.9946 194.469 99.6271 194.122 103.232 194.415C104.368 194.506 104.085 196.127 102.95 196.037C96.9076 195.572 90.8764 197.049 85.8723 200.219C81.0569 203.253 77.3075 207.471 74.1342 211.945C72.1904 214.685 70.4492 217.541 68.7078 220.393C68.1512 221.305 66.5245 220.647 67.0876 219.725Z" fill="#F2F2F2"/>
<path d="M57.4557 230.088C57.6583 227.916 58.5009 225.836 59.8918 224.077C61.2828 222.317 63.1687 220.944 65.3442 220.108V214.416H75.6579V220.287C77.7263 221.164 79.5064 222.534 80.8168 224.256C82.1271 225.977 82.9207 227.99 83.1168 230.088L85.542 256.184H55.0305L57.4557 230.088Z" fill="#F2F2F2"/>
<path d="M408.206 105.485L405.138 104.289L403.033 90.0518H375.005L372.724 104.231L369.979 105.502C369.847 105.562 369.742 105.662 369.68 105.786C369.617 105.909 369.602 106.048 369.636 106.18C369.669 106.312 369.75 106.43 369.866 106.514C369.981 106.599 370.123 106.645 370.27 106.645H407.953C408.104 106.645 408.25 106.596 408.366 106.508C408.483 106.42 408.563 106.297 408.592 106.161C408.622 106.024 408.6 105.882 408.53 105.759C408.459 105.636 408.345 105.539 408.206 105.485Z" fill="#E6E6E6"/>
<path d="M458.015 91.946H320.331C319.609 91.9445 318.917 91.6779 318.406 91.2045C317.896 90.7311 317.61 90.0897 317.61 89.421V71.4489H460.736V89.421C460.736 90.0897 460.45 90.7311 459.94 91.2045C459.429 91.6778 458.737 91.9445 458.015 91.946Z" fill="#CCCCCC"/>
<path d="M460.88 79.9429H317.484V3.04386C317.485 2.23684 317.832 1.46315 318.448 0.892519C319.065 0.321885 319.901 0.000902995 320.772 0H457.592C458.464 0.000902979 459.3 0.321886 459.916 0.892519C460.533 1.46315 460.879 2.23684 460.88 3.04386L460.88 79.9429Z" fill="#3F3D56"/>
<path d="M452.316 74.3615H326.048C325.376 74.3608 324.732 74.1134 324.257 73.6735C323.782 73.2335 323.514 72.6371 323.513 72.0149V7.92793C323.514 7.30576 323.781 6.70926 324.257 6.26931C324.732 5.82936 325.376 5.58189 326.048 5.58118H452.316C452.988 5.58189 453.632 5.82936 454.108 6.26931C454.583 6.70926 454.85 7.30575 454.851 7.92793V72.0149C454.85 72.6371 454.583 73.2335 454.108 73.6735C453.632 74.1134 452.988 74.3608 452.316 74.3615Z" fill="white"/>
<path d="M419.059 96.9747C419.874 96.2776 420.844 95.7545 421.902 95.4422C422.959 95.1299 424.077 95.036 425.178 95.167C426.279 95.2981 427.335 95.651 428.272 96.2008C429.21 96.7506 430.006 97.484 430.604 98.3493L447.683 95.5385L452.06 104.729L427.88 108.385C426.243 109.219 424.333 109.468 422.511 109.085C420.689 108.702 419.082 107.713 417.994 106.307C416.907 104.9 416.415 103.174 416.611 101.454C416.807 99.7336 417.678 98.1399 419.059 96.9747Z" fill="#FFB6B6"/>
<path d="M434.871 108.71L452.677 108.505L454.931 108.476L491.156 108.054C491.156 108.054 500.994 99.3664 509.56 90.4221L508.359 82.3834C507.188 74.4943 502.96 67.2678 496.463 62.0487C484.194 69.6371 477.08 84.6575 477.08 84.6575L454.618 89.6305L452.371 90.1279L438.415 93.2151L434.871 108.71Z" fill="#00B0FF"/>
<path d="M526.019 158.119H492.783C492.783 159.437 456.452 160.507 456.452 160.507C455.65 161.066 454.92 161.706 454.275 162.417C452.335 164.559 451.275 167.265 451.282 170.059V171.97C451.283 175.136 452.642 178.173 455.061 180.412C457.48 182.651 460.76 183.909 464.181 183.911H526.019C529.439 183.908 532.719 182.649 535.137 180.41C537.556 178.171 538.916 175.136 538.919 171.97V170.059C538.914 166.894 537.553 163.859 535.135 161.621C532.717 159.383 529.439 158.123 526.019 158.119Z" fill="#E4E4E4"/>
<path d="M501.85 183.436H488.435V255.115H501.85V183.436Z" fill="#E4E4E4"/>
<path d="M450.253 254.679C450.253 256.021 470.581 255.198 495.658 255.198C520.735 255.198 541.064 256.021 541.064 254.679C541.064 253.337 520.735 242.697 495.658 242.697C470.581 242.697 450.253 253.337 450.253 254.679Z" fill="#E4E4E4"/>
<path d="M441.241 246.489L431.257 246.488L426.507 210.84L441.242 210.84L441.241 246.489Z" fill="#FFB6B6"/>
<path d="M443.787 255.448L411.594 255.446V255.07C411.594 251.993 412.914 249.043 415.264 246.868C417.614 244.693 420.801 243.471 424.124 243.47H424.125L443.788 243.471L443.787 255.448Z" fill="#2F2E41"/>
<path d="M411.732 246.489L401.747 246.488L396.998 210.84L411.733 210.84L411.732 246.489Z" fill="#FFB6B6"/>
<path d="M414.278 255.448L382.084 255.446V255.07C382.085 251.993 383.405 249.043 385.755 246.868C388.105 244.693 391.292 243.471 394.615 243.47H394.616L414.278 243.471L414.278 255.448Z" fill="#2F2E41"/>
<path d="M501.168 41.2569C510.756 41.2569 518.528 34.0623 518.528 25.1873C518.528 16.3123 510.756 9.11768 501.168 9.11768C491.581 9.11768 483.808 16.3123 483.808 25.1873C483.808 34.0623 491.581 41.2569 501.168 41.2569Z" fill="#FFB6B6"/>
<path d="M529.265 135.29C529.265 135.29 535.09 163.801 512.927 167.432C490.765 171.062 458.773 173.614 458.773 173.614L444.407 235.661L425.106 234.066C425.106 234.066 427.673 159.375 433.985 153.532C440.298 147.689 480.196 130.192 480.196 130.192L529.265 135.29Z" fill="#2F2E41"/>
<path d="M485.98 123.341L476.288 132.342C476.288 132.342 406.3 142.777 403.601 157.74C399.524 180.331 394.71 229.457 394.71 229.457L415.752 227.996L424.003 172.153L457.671 165.064L495.975 145.741L485.98 123.341Z" fill="#2F2E41"/>
<path d="M517.873 15.595C516.16 12.6021 513.982 6.63717 510.523 5.53091C508.603 4.94134 506.617 4.54985 504.604 4.36355L498.725 6.45669L501.924 4.15308C501.301 4.11873 500.679 4.09064 500.056 4.06883L496.09 5.48107L498.119 4.01996C494.421 3.98482 490.604 4.34077 487.738 6.42471C485.295 8.20128 482.875 14.9313 482.484 17.784C482.065 20.513 482.212 23.2908 482.915 25.9691L483.92 26.8533C484.271 26.1075 484.535 25.329 484.708 24.5311C485.068 23.0402 485.76 21.6352 486.739 20.4055C487.718 19.1759 488.963 18.1485 490.395 17.3889L490.45 17.3604C492.135 16.4826 494.179 16.5231 496.111 16.5874L505.288 16.8931C507.495 16.9666 509.873 17.096 511.594 18.3779C512.688 19.3235 513.548 20.4769 514.115 21.7591C514.97 23.3569 516.642 29.3838 516.642 29.3838C516.642 29.3838 517.587 28.2462 518.04 29.0929C518.767 26.8837 519.209 24.6026 519.357 22.2973C519.501 19.9817 518.99 17.6713 517.873 15.595Z" fill="#2F2E41"/>
<path d="M578.59 32.2443C577.483 32.3118 576.405 32.6032 575.432 33.098C574.46 33.5929 573.616 34.2791 572.961 35.1083C572.306 35.9376 571.856 36.8897 571.641 37.8976C571.427 38.9055 571.453 39.9447 571.72 40.942L557.76 50.4741L561.948 59.7398L581.458 46.0223C583.239 45.4972 584.749 44.3858 585.703 42.8988C586.657 41.4117 586.989 39.6524 586.635 37.954C586.282 36.2557 585.268 34.7364 583.785 33.6841C582.302 32.6317 580.454 32.1194 578.59 32.2443Z" fill="#FFB6B6"/>
<path d="M576.343 51.7043L541.347 87.6826C541.347 87.6826 524.611 82.7232 511.668 77.3465L505.854 60.8148C504.503 56.9797 503.927 52.9473 504.154 48.919C522.097 44.4994 542.966 60.9444 542.966 60.9444L569.162 41.9501L576.343 51.7043Z" fill="#00B0FF"/>
<path d="M494.684 137.947C488.44 135.951 481.984 133.886 475.02 133.111L474.721 133.078L474.804 132.81C482.012 109.38 480.213 94.3924 476.681 71.8788C475.929 67.0226 476.895 62.0717 479.433 57.7651C481.971 53.4584 485.945 50.027 490.763 47.9829L490.805 47.9651L510.695 46.7952L510.74 46.7926L525.205 50.7307C527.286 51.3014 529.107 52.4879 530.39 54.1084C531.672 55.7289 532.346 57.694 532.307 59.7026C532.15 67.1067 532.482 75.3731 532.834 84.1246C533.624 103.758 534.44 124.061 529.808 137.233L529.784 137.302L529.722 137.347C525.464 140.557 520.13 142.292 514.638 142.252C508.146 142.252 501.52 140.133 494.684 137.947Z" fill="#00B0FF"/>
<path d="M639.075 257H0.924857C0.679571 257 0.444332 256.91 0.270888 256.749C0.0974444 256.589 0 256.371 0 256.144C0 255.917 0.0974444 255.699 0.270888 255.539C0.444332 255.378 0.679571 255.288 0.924857 255.288H639.075C639.32 255.288 639.556 255.378 639.729 255.539C639.903 255.699 640 255.917 640 256.144C640 256.371 639.903 256.589 639.729 256.749C639.556 256.91 639.32 257 639.075 257Z" fill="#CCCCCC"/>
</g>
<defs>
<clipPath id="clip0_37_224">
<rect width="640" height="257" fill="white"/>
</clipPath>
</defs>
</svg>
